<svg xmlns="http://www.w3.org/2000/svg" version="1.1" xmlns:xlink="http://www.w3.org/1999/xlink" xmlns:svgjs="http://svgjs.dev/svgjs" width="1920" height="1080" preserveAspectRatio="none" viewBox="0 0 1920 1080"><g mask="url(&quot;#SvgjsMask1006&quot;)" fill="none"><path d="M -607.6042516089585,347 C -479.6,421.6 -223.6,695.8 32.39574839104151,720 C 288.4,744.2 416.4,447.8 672.3957483910415,468 C 928.4,488.2 1056.4,888.6 1312.3957483910415,821 C 1568.4,753.4 1830.87,115.2 1952.3957483910415,130 C 2073.92,144.8 1926.48,742 1920,895" stroke="rgba(11, 19, 178, 1)" stroke-width="2"></path><path d="M -208.80147169059592,812 C -80.8,707.8 175.2,336.8 431.1985283094041,291 C 687.2,245.2 815.2,539.6 1071.198528309404,583 C 1327.2,626.4 1455.2,470.6 1711.198528309404,508 C 1967.2,545.4 2309.44,802.2 2351.198528309404,770 C 2392.96,737.8 2006.24,431.6 1920,347" stroke="rgba(140, 148, 233, 1)" stroke-width="2"></path><path d="M -449.91774468856585,119 C -321.92,227.4 -65.92,659 190.08225531143415,661 C 446.08,663 574.08,146 830.0822553114342,129 C 1086.08,112 1214.08,529.2 1470.0822553114342,576 C 1726.08,622.8 2020.1,324.2 2110.082255311434,363 C 2200.07,401.8 1958.02,688.6 1920,770" stroke="rgba(140, 148, 233, 1)" stroke-width="2"></path><path d="M -1216.3635496775541,924 C -1088.36,809.6 -832.36,388.8 -576.3635496775543,352 C -320.36,315.2 -192.36,708.6 63.63645032244574,740 C 319.64,771.4 447.64,493 703.6364503224457,509 C 959.64,525 1100.36,840.8 1343.6364503224459,820 C 1586.91,799.2 1804.73,488 1920,405" stroke="rgba(11, 19, 178, 1)" stroke-width="2"></path><path d="M -236.48076394532234,279 C -108.48,409.8 147.52,885.4 403.51923605467766,933 C 659.52,980.6 787.52,528.6 1043.5192360546775,517 C 1299.52,505.4 1427.52,893.8 1683.5192360546775,875 C 1939.52,856.2 2276.22,461.6 2323.5192360546775,423 C 2370.82,384.4 2000.7,630.2 1920,682" stroke="rgba(11, 19, 178, 1)" stroke-width="2"></path><path d="M -98.78018995169396,932 C 29.22,842 285.22,491.8 541.219810048306,482 C 797.22,472.2 925.22,956 1181.219810048306,883 C 1437.22,810 1565.22,175 1821.219810048306,117 C 2077.22,59 2441.46,542 2461.219810048306,593 C 2480.98,644 2028.24,416.2 1920,372" stroke="rgba(11, 19, 178, 1)" stroke-width="2"></path></g><defs><mask id="SvgjsMask1006"><rect width="1920" height="1080" fill="#ffffff"></rect></mask></defs></svg>