<svg xmlns="http://www.w3.org/2000/svg" version="1.1" xmlns:xlink="http://www.w3.org/1999/xlink" xmlns:svgjs="http://svgjs.com/svgjs" width="1440" height="560" preserveAspectRatio="none" viewBox="0 0 1440 560"><g mask="url(&quot;#SvgjsMask1000&quot;)" fill="none"><path d="M-91.23 409.75L-91.23 409.75" stroke="rgba(100, 142, 228, 1)" stroke-width="1.5"></path><path d="M-91.23 409.75L-71.46 534.85" stroke="rgba(100, 142, 228, 1)" stroke-width="1.5"></path><path d="M-91.23 409.75L47.97 506.63" stroke="rgba(100, 142, 228, 1)" stroke-width="1.5"></path><path d="M-71.46 534.85L-71.46 534.85" stroke="rgba(100, 142, 228, 1)" stroke-width="1.5"></path><path d="M-71.46 534.85L47.97 506.63" stroke="rgba(100, 142, 228, 1)" stroke-width="1.5"></path><path d="M-71.46 534.85L45.97 641.98" stroke="rgba(100, 142, 228, 1)" stroke-width="1.5"></path><path d="M-71.46 534.85L-83.11 695.43" stroke="rgba(100, 142, 228, 1)" stroke-width="1.5"></path><path d="M-71.46 534.85L93.49 343.2" stroke="rgba(100, 142, 228, 1)" stroke-width="1.5"></path><path d="M-83.11 695.43L-83.11 695.43" stroke="rgba(100, 142, 228, 1)" stroke-width="1.5"></path><path d="M-83.11 695.43L45.97 641.98" stroke="rgba(100, 142, 228, 1)" stroke-width="1.5"></path><path d="M-83.11 695.43L47.97 506.63" stroke="rgba(100, 142, 228, 1)" stroke-width="1.5"></path><path d="M-83.11 695.43L-91.23 409.75" stroke="rgba(100, 142, 228, 1)" stroke-width="1.5"></path><path d="M-83.11 695.43L214.07 666.66" stroke="rgba(100, 142, 228, 1)" stroke-width="1.5"></path><path d="M93.49 343.2L93.49 343.2" stroke="rgba(100, 142, 228, 1)" stroke-width="1.5"></path><path d="M93.49 343.2L217.8 363.9" stroke="rgba(100, 142, 228, 1)" stroke-width="1.5"></path><path d="M93.49 343.2L47.97 506.63" stroke="rgba(100, 142, 228, 1)" stroke-width="1.5"></path><path d="M93.49 343.2L-91.23 409.75" stroke="rgba(100, 142, 228, 1)" stroke-width="1.5"></path><path d="M47.97 506.63L47.97 506.63" stroke="rgba(100, 142, 228, 1)" stroke-width="1.5"></path><path d="M47.97 506.63L45.97 641.98" stroke="rgba(100, 142, 228, 1)" stroke-width="1.5"></path><path d="M45.97 641.98L45.97 641.98" stroke="rgba(100, 142, 228, 1)" stroke-width="1.5"></path><path d="M45.97 641.98L214.07 666.66" stroke="rgba(100, 142, 228, 1)" stroke-width="1.5"></path><path d="M45.97 641.98L253.25 557.47" stroke="rgba(100, 142, 228, 1)" stroke-width="1.5"></path><path d="M217.8 363.9L217.8 363.9" stroke="rgba(100, 142, 228, 1)" stroke-width="1.5"></path><path d="M217.8 363.9L406.49 356.86" stroke="rgba(100, 142, 228, 1)" stroke-width="1.5"></path><path d="M217.8 363.9L253.25 557.47" stroke="rgba(100, 142, 228, 1)" stroke-width="1.5"></path><path d="M217.8 363.9L47.97 506.63" stroke="rgba(100, 142, 228, 1)" stroke-width="1.5"></path><path d="M217.8 363.9L396.99 508.31" stroke="rgba(100, 142, 228, 1)" stroke-width="1.5"></path><path d="M253.25 557.47L253.25 557.47" stroke="rgba(100, 142, 228, 1)" stroke-width="1.5"></path><path d="M253.25 557.47L214.07 666.66" stroke="rgba(100, 142, 228, 1)" stroke-width="1.5"></path><path d="M253.25 557.47L355.31 662.25" stroke="rgba(100, 142, 228, 1)" stroke-width="1.5"></path><path d="M253.25 557.47L396.99 508.31" stroke="rgba(100, 142, 228, 1)" stroke-width="1.5"></path><path d="M214.07 666.66L214.07 666.66" stroke="rgba(100, 142, 228, 1)" stroke-width="1.5"></path><path d="M214.07 666.66L355.31 662.25" stroke="rgba(100, 142, 228, 1)" stroke-width="1.5"></path><path d="M406.49 356.86L406.49 356.86" stroke="rgba(100, 142, 228, 1)" stroke-width="1.5"></path><path d="M406.49 356.86L503.52 392.34" stroke="rgba(100, 142, 228, 1)" stroke-width="1.5"></path><path d="M406.49 356.86L396.99 508.31" stroke="rgba(100, 142, 228, 1)" stroke-width="1.5"></path><path d="M406.49 356.86L490.14 550.48" stroke="rgba(100, 142, 228, 1)" stroke-width="1.5"></path><path d="M406.49 356.86L253.25 557.47" stroke="rgba(100, 142, 228, 1)" stroke-width="1.5"></path><path d="M406.49 356.86L660.85 229.19" stroke="rgba(100, 142, 228, 1)" stroke-width="1.5"></path><path d="M396.99 508.31L396.99 508.31" stroke="rgba(100, 142, 228, 1)" stroke-width="1.5"></path><path d="M396.99 508.31L490.14 550.48" stroke="rgba(100, 142, 228, 1)" stroke-width="1.5"></path><path d="M396.99 508.31L503.52 392.34" stroke="rgba(100, 142, 228, 1)" stroke-width="1.5"></path><path d="M355.31 662.25L355.31 662.25" stroke="rgba(100, 142, 228, 1)" stroke-width="1.5"></path><path d="M355.31 662.25L503.81 689.31" stroke="rgba(100, 142, 228, 1)" stroke-width="1.5"></path><path d="M503.52 392.34L503.52 392.34" stroke="rgba(100, 142, 228, 1)" stroke-width="1.5"></path><path d="M503.52 392.34L490.14 550.48" stroke="rgba(100, 142, 228, 1)" stroke-width="1.5"></path><path d="M490.14 550.48L490.14 550.48" stroke="rgba(100, 142, 228, 1)" stroke-width="1.5"></path><path d="M490.14 550.48L503.81 689.31" stroke="rgba(100, 142, 228, 1)" stroke-width="1.5"></path><path d="M490.14 550.48L355.31 662.25" stroke="rgba(100, 142, 228, 1)" stroke-width="1.5"></path><path d="M490.14 550.48L702.42 532.52" stroke="rgba(100, 142, 228, 1)" stroke-width="1.5"></path><path d="M503.81 689.31L503.81 689.31" stroke="rgba(100, 142, 228, 1)" stroke-width="1.5"></path><path d="M503.81 689.31L682.16 704.38" stroke="rgba(100, 142, 228, 1)" stroke-width="1.5"></path><path d="M503.81 689.31L396.99 508.31" stroke="rgba(100, 142, 228, 1)" stroke-width="1.5"></path><path d="M660.85 229.19L660.85 229.19" stroke="rgba(100, 142, 228, 1)" stroke-width="1.5"></path><path d="M660.85 229.19L701.14 343.59" stroke="rgba(100, 142, 228, 1)" stroke-width="1.5"></path><path d="M660.85 229.19L791.68 197.67" stroke="rgba(100, 142, 228, 1)" stroke-width="1.5"></path><path d="M660.85 229.19L503.52 392.34" stroke="rgba(100, 142, 228, 1)" stroke-width="1.5"></path><path d="M660.85 229.19L855.72 410.35" stroke="rgba(100, 142, 228, 1)" stroke-width="1.5"></path><path d="M701.14 343.59L701.14 343.59" stroke="rgba(100, 142, 228, 1)" stroke-width="1.5"></path><path d="M701.14 343.59L855.72 410.35" stroke="rgba(100, 142, 228, 1)" stroke-width="1.5"></path><path d="M701.14 343.59L791.68 197.67" stroke="rgba(100, 142, 228, 1)" stroke-width="1.5"></path><path d="M701.14 343.59L702.42 532.52" stroke="rgba(100, 142, 228, 1)" stroke-width="1.5"></path><path d="M702.42 532.52L702.42 532.52" stroke="rgba(100, 142, 228, 1)" stroke-width="1.5"></path><path d="M702.42 532.52L682.16 704.38" stroke="rgba(100, 142, 228, 1)" stroke-width="1.5"></path><path d="M682.16 704.38L682.16 704.38" stroke="rgba(100, 142, 228, 1)" stroke-width="1.5"></path><path d="M682.16 704.38L858.83 639.99" stroke="rgba(100, 142, 228, 1)" stroke-width="1.5"></path><path d="M682.16 704.38L490.14 550.48" stroke="rgba(100, 142, 228, 1)" stroke-width="1.5"></path><path d="M682.16 704.38L941.44 702.91" stroke="rgba(100, 142, 228, 1)" stroke-width="1.5"></path><path d="M682.16 704.38L355.31 662.25" stroke="rgba(100, 142, 228, 1)" stroke-width="1.5"></path><path d="M791.68 197.67L791.68 197.67" stroke="rgba(100, 142, 228, 1)" stroke-width="1.5"></path><path d="M855.72 410.35L855.72 410.35" stroke="rgba(100, 142, 228, 1)" stroke-width="1.5"></path><path d="M855.72 410.35L968.89 492.87" stroke="rgba(100, 142, 228, 1)" stroke-width="1.5"></path><path d="M855.72 410.35L996.26 352.75" stroke="rgba(100, 142, 228, 1)" stroke-width="1.5"></path><path d="M855.72 410.35L702.42 532.52" stroke="rgba(100, 142, 228, 1)" stroke-width="1.5"></path><path d="M855.72 410.35L791.68 197.67" stroke="rgba(100, 142, 228, 1)" stroke-width="1.5"></path><path d="M858.83 639.99L858.83 639.99" stroke="rgba(100, 142, 228, 1)" stroke-width="1.5"></path><path d="M858.83 639.99L941.44 702.91" stroke="rgba(100, 142, 228, 1)" stroke-width="1.5"></path><path d="M858.83 639.99L968.89 492.87" stroke="rgba(100, 142, 228, 1)" stroke-width="1.5"></path><path d="M858.83 639.99L702.42 532.52" stroke="rgba(100, 142, 228, 1)" stroke-width="1.5"></path><path d="M1011.93 -88.53L1011.93 -88.53" stroke="rgba(100, 142, 228, 1)" stroke-width="1.5"></path><path d="M1011.93 -88.53L1122.17 -90.09" stroke="rgba(100, 142, 228, 1)" stroke-width="1.5"></path><path d="M1011.93 -88.53L1094.06 80.44" stroke="rgba(100, 142, 228, 1)" stroke-width="1.5"></path><path d="M1011.93 -88.53L996.58 103.94" stroke="rgba(100, 142, 228, 1)" stroke-width="1.5"></path><path d="M1011.93 -88.53L994.66 192.59" stroke="rgba(100, 142, 228, 1)" stroke-width="1.5"></path><path d="M1011.93 -88.53L1304.37 -111.04" stroke="rgba(100, 142, 228, 1)" stroke-width="1.5"></path><path d="M996.58 103.94L996.58 103.94" stroke="rgba(100, 142, 228, 1)" stroke-width="1.5"></path><path d="M996.58 103.94L994.66 192.59" stroke="rgba(100, 142, 228, 1)" stroke-width="1.5"></path><path d="M996.58 103.94L1094.06 80.44" stroke="rgba(100, 142, 228, 1)" stroke-width="1.5"></path><path d="M996.58 103.94L1133.3 205.32" stroke="rgba(100, 142, 228, 1)" stroke-width="1.5"></path><path d="M996.58 103.94L791.68 197.67" stroke="rgba(100, 142, 228, 1)" stroke-width="1.5"></path><path d="M996.58 103.94L1122.17 -90.09" stroke="rgba(100, 142, 228, 1)" stroke-width="1.5"></path><path d="M994.66 192.59L994.66 192.59" stroke="rgba(100, 142, 228, 1)" stroke-width="1.5"></path><path d="M994.66 192.59L1133.3 205.32" stroke="rgba(100, 142, 228, 1)" stroke-width="1.5"></path><path d="M996.26 352.75L996.26 352.75" stroke="rgba(100, 142, 228, 1)" stroke-width="1.5"></path><path d="M996.26 352.75L968.89 492.87" stroke="rgba(100, 142, 228, 1)" stroke-width="1.5"></path><path d="M996.26 352.75L1150.85 385.02" stroke="rgba(100, 142, 228, 1)" stroke-width="1.5"></path><path d="M996.26 352.75L994.66 192.59" stroke="rgba(100, 142, 228, 1)" stroke-width="1.5"></path><path d="M996.26 352.75L1133.3 205.32" stroke="rgba(100, 142, 228, 1)" stroke-width="1.5"></path><path d="M968.89 492.87L968.89 492.87" stroke="rgba(100, 142, 228, 1)" stroke-width="1.5"></path><path d="M968.89 492.87L1125.42 529.4" stroke="rgba(100, 142, 228, 1)" stroke-width="1.5"></path><path d="M968.89 492.87L1150.85 385.02" stroke="rgba(100, 142, 228, 1)" stroke-width="1.5"></path><path d="M941.44 702.91L941.44 702.91" stroke="rgba(100, 142, 228, 1)" stroke-width="1.5"></path><path d="M941.44 702.91L1106.17 656.98" stroke="rgba(100, 142, 228, 1)" stroke-width="1.5"></path><path d="M1122.17 -90.09L1122.17 -90.09" stroke="rgba(100, 142, 228, 1)" stroke-width="1.5"></path><path d="M1122.17 -90.09L1094.06 80.44" stroke="rgba(100, 142, 228, 1)" stroke-width="1.5"></path><path d="M1122.17 -90.09L1304.37 -111.04" stroke="rgba(100, 142, 228, 1)" stroke-width="1.5"></path><path d="M1122.17 -90.09L1279.72 62.36" stroke="rgba(100, 142, 228, 1)" stroke-width="1.5"></path><path d="M1094.06 80.44L1094.06 80.44" stroke="rgba(100, 142, 228, 1)" stroke-width="1.5"></path><path d="M1094.06 80.44L1133.3 205.32" stroke="rgba(100, 142, 228, 1)" stroke-width="1.5"></path><path d="M1094.06 80.44L994.66 192.59" stroke="rgba(100, 142, 228, 1)" stroke-width="1.5"></path><path d="M1133.3 205.32L1133.3 205.32" stroke="rgba(100, 142, 228, 1)" stroke-width="1.5"></path><path d="M1150.85 385.02L1150.85 385.02" stroke="rgba(100, 142, 228, 1)" stroke-width="1.5"></path><path d="M1150.85 385.02L1295.71 392.44" stroke="rgba(100, 142, 228, 1)" stroke-width="1.5"></path><path d="M1150.85 385.02L1125.42 529.4" stroke="rgba(100, 142, 228, 1)" stroke-width="1.5"></path><path d="M1150.85 385.02L1133.3 205.32" stroke="rgba(100, 142, 228, 1)" stroke-width="1.5"></path><path d="M1150.85 385.02L1302.01 224.42" stroke="rgba(100, 142, 228, 1)" stroke-width="1.5"></path><path d="M1125.42 529.4L1125.42 529.4" stroke="rgba(100, 142, 228, 1)" stroke-width="1.5"></path><path d="M1125.42 529.4L1106.17 656.98" stroke="rgba(100, 142, 228, 1)" stroke-width="1.5"></path><path d="M1106.17 656.98L1106.17 656.98" stroke="rgba(100, 142, 228, 1)" stroke-width="1.5"></path><path d="M1106.17 656.98L1265.24 709.56" stroke="rgba(100, 142, 228, 1)" stroke-width="1.5"></path><path d="M1304.37 -111.04L1304.37 -111.04" stroke="rgba(100, 142, 228, 1)" stroke-width="1.5"></path><path d="M1304.37 -111.04L1449.11 -59.67" stroke="rgba(100, 142, 228, 1)" stroke-width="1.5"></path><path d="M1304.37 -111.04L1279.72 62.36" stroke="rgba(100, 142, 228, 1)" stroke-width="1.5"></path><path d="M1279.72 62.36L1279.72 62.36" stroke="rgba(100, 142, 228, 1)" stroke-width="1.5"></path><path d="M1279.72 62.36L1411.17 85.64" stroke="rgba(100, 142, 228, 1)" stroke-width="1.5"></path><path d="M1279.72 62.36L1302.01 224.42" stroke="rgba(100, 142, 228, 1)" stroke-width="1.5"></path><path d="M1279.72 62.36L1094.06 80.44" stroke="rgba(100, 142, 228, 1)" stroke-width="1.5"></path><path d="M1279.72 62.36L1133.3 205.32" stroke="rgba(100, 142, 228, 1)" stroke-width="1.5"></path><path d="M1279.72 62.36L1449.11 -59.67" stroke="rgba(100, 142, 228, 1)" stroke-width="1.5"></path><path d="M1302.01 224.42L1302.01 224.42" stroke="rgba(100, 142, 228, 1)" stroke-width="1.5"></path><path d="M1302.01 224.42L1421.2 245.34" stroke="rgba(100, 142, 228, 1)" stroke-width="1.5"></path><path d="M1302.01 224.42L1295.71 392.44" stroke="rgba(100, 142, 228, 1)" stroke-width="1.5"></path><path d="M1302.01 224.42L1133.3 205.32" stroke="rgba(100, 142, 228, 1)" stroke-width="1.5"></path><path d="M1302.01 224.42L1411.17 85.64" stroke="rgba(100, 142, 228, 1)" stroke-width="1.5"></path><path d="M1295.71 392.44L1295.71 392.44" stroke="rgba(100, 142, 228, 1)" stroke-width="1.5"></path><path d="M1295.71 392.44L1436.74 368.28" stroke="rgba(100, 142, 228, 1)" stroke-width="1.5"></path><path d="M1295.71 392.44L1434.15 511.78" stroke="rgba(100, 142, 228, 1)" stroke-width="1.5"></path><path d="M1295.71 392.44L1421.2 245.34" stroke="rgba(100, 142, 228, 1)" stroke-width="1.5"></path><path d="M1265.24 709.56L1265.24 709.56" stroke="rgba(100, 142, 228, 1)" stroke-width="1.5"></path><path d="M1265.24 709.56L1428.6 696.88" stroke="rgba(100, 142, 228, 1)" stroke-width="1.5"></path><path d="M1265.24 709.56L1125.42 529.4" stroke="rgba(100, 142, 228, 1)" stroke-width="1.5"></path><path d="M1265.24 709.56L1434.15 511.78" stroke="rgba(100, 142, 228, 1)" stroke-width="1.5"></path><path d="M1265.24 709.56L1573.6 689.2" stroke="rgba(100, 142, 228, 1)" stroke-width="1.5"></path><path d="M1265.24 709.56L1295.71 392.44" stroke="rgba(100, 142, 228, 1)" stroke-width="1.5"></path><path d="M1449.11 -59.67L1449.11 -59.67" stroke="rgba(100, 142, 228, 1)" stroke-width="1.5"></path><path d="M1449.11 -59.67L1411.17 85.64" stroke="rgba(100, 142, 228, 1)" stroke-width="1.5"></path><path d="M1449.11 -59.67L1608.08 -54.36" stroke="rgba(100, 142, 228, 1)" stroke-width="1.5"></path><path d="M1411.17 85.64L1411.17 85.64" stroke="rgba(100, 142, 228, 1)" stroke-width="1.5"></path><path d="M1411.17 85.64L1421.2 245.34" stroke="rgba(100, 142, 228, 1)" stroke-width="1.5"></path><path d="M1411.17 85.64L1600.9 88.67" stroke="rgba(100, 142, 228, 1)" stroke-width="1.5"></path><path d="M1411.17 85.64L1304.37 -111.04" stroke="rgba(100, 142, 228, 1)" stroke-width="1.5"></path><path d="M1421.2 245.34L1421.2 245.34" stroke="rgba(100, 142, 228, 1)" stroke-width="1.5"></path><path d="M1421.2 245.34L1436.74 368.28" stroke="rgba(100, 142, 228, 1)" stroke-width="1.5"></path><path d="M1436.74 368.28L1436.74 368.28" stroke="rgba(100, 142, 228, 1)" stroke-width="1.5"></path><path d="M1434.15 511.78L1434.15 511.78" stroke="rgba(100, 142, 228, 1)" stroke-width="1.5"></path><path d="M1434.15 511.78L1436.74 368.28" stroke="rgba(100, 142, 228, 1)" stroke-width="1.5"></path><path d="M1434.15 511.78L1584.15 528.32" stroke="rgba(100, 142, 228, 1)" stroke-width="1.5"></path><path d="M1434.15 511.78L1428.6 696.88" stroke="rgba(100, 142, 228, 1)" stroke-width="1.5"></path><path d="M1428.6 696.88L1428.6 696.88" stroke="rgba(100, 142, 228, 1)" stroke-width="1.5"></path><path d="M1428.6 696.88L1573.6 689.2" stroke="rgba(100, 142, 228, 1)" stroke-width="1.5"></path><path d="M1608.08 -54.36L1608.08 -54.36" stroke="rgba(100, 142, 228, 1)" stroke-width="1.5"></path><path d="M1608.08 -54.36L1600.9 88.67" stroke="rgba(100, 142, 228, 1)" stroke-width="1.5"></path><path d="M1608.08 -54.36L1411.17 85.64" stroke="rgba(100, 142, 228, 1)" stroke-width="1.5"></path><path d="M1608.08 -54.36L1304.37 -111.04" stroke="rgba(100, 142, 228, 1)" stroke-width="1.5"></path><path d="M1608.08 -54.36L1581.75 255.94" stroke="rgba(100, 142, 228, 1)" stroke-width="1.5"></path><path d="M1608.08 -54.36L1279.72 62.36" stroke="rgba(100, 142, 228, 1)" stroke-width="1.5"></path><path d="M1600.9 88.67L1600.9 88.67" stroke="rgba(100, 142, 228, 1)" stroke-width="1.5"></path><path d="M1600.9 88.67L1581.75 255.94" stroke="rgba(100, 142, 228, 1)" stroke-width="1.5"></path><path d="M1600.9 88.67L1449.11 -59.67" stroke="rgba(100, 142, 228, 1)" stroke-width="1.5"></path><path d="M1600.9 88.67L1421.2 245.34" stroke="rgba(100, 142, 228, 1)" stroke-width="1.5"></path><path d="M1581.75 255.94L1581.75 255.94" stroke="rgba(100, 142, 228, 1)" stroke-width="1.5"></path><path d="M1581.75 255.94L1586.22 384.28" stroke="rgba(100, 142, 228, 1)" stroke-width="1.5"></path><path d="M1581.75 255.94L1421.2 245.34" stroke="rgba(100, 142, 228, 1)" stroke-width="1.5"></path><path d="M1586.22 384.28L1586.22 384.28" stroke="rgba(100, 142, 228, 1)" stroke-width="1.5"></path><path d="M1584.15 528.32L1584.15 528.32" stroke="rgba(100, 142, 228, 1)" stroke-width="1.5"></path><path d="M1584.15 528.32L1586.22 384.28" stroke="rgba(100, 142, 228, 1)" stroke-width="1.5"></path><path d="M1573.6 689.2L1573.6 689.2" stroke="rgba(100, 142, 228, 1)" stroke-width="1.5"></path><path d="M1573.6 689.2L1584.15 528.32" stroke="rgba(100, 142, 228, 1)" stroke-width="1.5"></path><path d="M1573.6 689.2L1434.15 511.78" stroke="rgba(100, 142, 228, 1)" stroke-width="1.5"></path><path d="M1573.6 689.2L1586.22 384.28" stroke="rgba(100, 142, 228, 1)" stroke-width="1.5"></path><path d="M1573.6 689.2L1436.74 368.28" stroke="rgba(100, 142, 228, 1)" stroke-width="1.5"></path><circle r="5" cx="-91.23" cy="409.75" fill="rgba(100, 142, 228, 1)"></circle><circle r="5" cx="-71.46" cy="534.85" fill="rgba(100, 142, 228, 1)"></circle><circle r="5" cx="-83.11" cy="695.43" fill="rgba(100, 142, 228, 1)"></circle><circle r="5" cx="93.49" cy="343.2" fill="rgba(100, 142, 228, 1)"></circle><circle r="5" cx="47.97" cy="506.63" fill="rgba(100, 142, 228, 1)"></circle><circle r="5" cx="45.97" cy="641.98" fill="rgba(100, 142, 228, 1)"></circle><circle r="5" cx="217.8" cy="363.9" fill="rgba(100, 142, 228, 1)"></circle><circle r="5" cx="253.25" cy="557.47" fill="rgba(100, 142, 228, 1)"></circle><circle r="5" cx="214.07" cy="666.66" fill="rgba(100, 142, 228, 1)"></circle><circle r="5" cx="406.49" cy="356.86" fill="rgba(100, 142, 228, 1)"></circle><circle r="5" cx="396.99" cy="508.31" fill="rgba(100, 142, 228, 1)"></circle><circle r="5" cx="355.31" cy="662.25" fill="rgba(100, 142, 228, 1)"></circle><circle r="5" cx="503.52" cy="392.34" fill="rgba(100, 142, 228, 1)"></circle><circle r="5" cx="490.14" cy="550.48" fill="rgba(100, 142, 228, 1)"></circle><circle r="5" cx="503.81" cy="689.31" fill="rgba(100, 142, 228, 1)"></circle><circle r="5" cx="660.85" cy="229.19" fill="rgba(100, 142, 228, 1)"></circle><circle r="5" cx="701.14" cy="343.59" fill="rgba(100, 142, 228, 1)"></circle><circle r="5" cx="702.42" cy="532.52" fill="rgba(100, 142, 228, 1)"></circle><circle r="5" cx="682.16" cy="704.38" fill="rgba(100, 142, 228, 1)"></circle><circle r="5" cx="791.68" cy="197.67" fill="rgba(100, 142, 228, 1)"></circle><circle r="5" cx="855.72" cy="410.35" fill="rgba(100, 142, 228, 1)"></circle><circle r="5" cx="858.83" cy="639.99" fill="rgba(100, 142, 228, 1)"></circle><circle r="5" cx="1011.93" cy="-88.53" fill="rgba(100, 142, 228, 1)"></circle><circle r="5" cx="996.58" cy="103.94" fill="rgba(100, 142, 228, 1)"></circle><circle r="5" cx="994.66" cy="192.59" fill="rgba(100, 142, 228, 1)"></circle><circle r="5" cx="996.26" cy="352.75" fill="rgba(100, 142, 228, 1)"></circle><circle r="5" cx="968.89" cy="492.87" fill="rgba(100, 142, 228, 1)"></circle><circle r="5" cx="941.44" cy="702.91" fill="rgba(100, 142, 228, 1)"></circle><circle r="5" cx="1122.17" cy="-90.09" fill="rgba(100, 142, 228, 1)"></circle><circle r="5" cx="1094.06" cy="80.44" fill="rgba(100, 142, 228, 1)"></circle><circle r="5" cx="1133.3" cy="205.32" fill="rgba(100, 142, 228, 1)"></circle><circle r="5" cx="1150.85" cy="385.02" fill="rgba(100, 142, 228, 1)"></circle><circle r="5" cx="1125.42" cy="529.4" fill="rgba(100, 142, 228, 1)"></circle><circle r="5" cx="1106.17" cy="656.98" fill="rgba(100, 142, 228, 1)"></circle><circle r="5" cx="1304.37" cy="-111.04" fill="rgba(100, 142, 228, 1)"></circle><circle r="5" cx="1279.72" cy="62.36" fill="rgba(100, 142, 228, 1)"></circle><circle r="5" cx="1302.01" cy="224.42" fill="rgba(100, 142, 228, 1)"></circle><circle r="5" cx="1295.71" cy="392.44" fill="rgba(100, 142, 228, 1)"></circle><circle r="5" cx="1265.24" cy="709.56" fill="rgba(100, 142, 228, 1)"></circle><circle r="5" cx="1449.11" cy="-59.67" fill="rgba(100, 142, 228, 1)"></circle><circle r="5" cx="1411.17" cy="85.64" fill="rgba(100, 142, 228, 1)"></circle><circle r="5" cx="1421.2" cy="245.34" fill="rgba(100, 142, 228, 1)"></circle><circle r="5" cx="1436.74" cy="368.28" fill="rgba(100, 142, 228, 1)"></circle><circle r="5" cx="1434.15" cy="511.78" fill="rgba(100, 142, 228, 1)"></circle><circle r="5" cx="1428.6" cy="696.88" fill="rgba(100, 142, 228, 1)"></circle><circle r="5" cx="1608.08" cy="-54.36" fill="rgba(100, 142, 228, 1)"></circle><circle r="5" cx="1600.9" cy="88.67" fill="rgba(100, 142, 228, 1)"></circle><circle r="5" cx="1581.75" cy="255.94" fill="rgba(100, 142, 228, 1)"></circle><circle r="5" cx="1586.22" cy="384.28" fill="rgba(100, 142, 228, 1)"></circle><circle r="5" cx="1584.15" cy="528.32" fill="rgba(100, 142, 228, 1)"></circle><circle r="5" cx="1573.6" cy="689.2" fill="rgba(100, 142, 228, 1)"></circle><path d="M380.21 675.41L380.21 675.41" stroke="hsl(0, 0%, 100%)" stroke-width="1.5"></path><path d="M380.21 675.41L394.04 551.21" stroke="hsl(0, 0%, 100%)" stroke-width="1.5"></path><path d="M380.21 675.41L510.34 656.03" stroke="hsl(0, 0%, 100%)" stroke-width="1.5"></path><path d="M380.21 675.41L248.97 641.63" stroke="hsl(0, 0%, 100%)" stroke-width="1.5"></path><path d="M548.52 519.08L548.52 519.08" stroke="hsl(0, 0%, 100%)" stroke-width="1.5"></path><path d="M548.52 519.08L554.77 393.2" stroke="hsl(0, 0%, 100%)" stroke-width="1.5"></path><path d="M548.52 519.08L510.34 656.03" stroke="hsl(0, 0%, 100%)" stroke-width="1.5"></path><path d="M548.52 519.08L696.45 536.31" stroke="hsl(0, 0%, 100%)" stroke-width="1.5"></path><path d="M548.52 519.08L394.04 551.21" stroke="hsl(0, 0%, 100%)" stroke-width="1.5"></path><path d="M548.52 519.08L653.85 396.57" stroke="hsl(0, 0%, 100%)" stroke-width="1.5"></path><path d="M548.52 519.08L380.21 675.41" stroke="hsl(0, 0%, 100%)" stroke-width="1.5"></path><path d="M510.34 656.03L510.34 656.03" stroke="hsl(0, 0%, 100%)" stroke-width="1.5"></path><path d="M510.34 656.03L394.04 551.21" stroke="hsl(0, 0%, 100%)" stroke-width="1.5"></path><path d="M956.28 557.12L956.28 557.12" stroke="hsl(0, 0%, 100%)" stroke-width="1.5"></path><path d="M956.28 557.12L1100.32 552.06" stroke="hsl(0, 0%, 100%)" stroke-width="1.5"></path><path d="M956.28 557.12L941.87 703.32" stroke="hsl(0, 0%, 100%)" stroke-width="1.5"></path><path d="M956.28 557.12L797.36 552.17" stroke="hsl(0, 0%, 100%)" stroke-width="1.5"></path><path d="M941.87 703.32L941.87 703.32" stroke="hsl(0, 0%, 100%)" stroke-width="1.5"></path><path d="M941.87 703.32L811.69 674.14" stroke="hsl(0, 0%, 100%)" stroke-width="1.5"></path><path d="M941.87 703.32L797.36 552.17" stroke="hsl(0, 0%, 100%)" stroke-width="1.5"></path><path d="M1298.82 -69.88L1298.82 -69.88" stroke="hsl(0, 0%, 100%)" stroke-width="1.5"></path><path d="M1298.82 -69.88L1418.16 -94.63" stroke="hsl(0, 0%, 100%)" stroke-width="1.5"></path><path d="M1298.82 -69.88L1292.46 80.89" stroke="hsl(0, 0%, 100%)" stroke-width="1.5"></path><path d="M1298.82 -69.88L1456.05 81.08" stroke="hsl(0, 0%, 100%)" stroke-width="1.5"></path><path d="M1298.82 -69.88L1564.98 -105.9" stroke="hsl(0, 0%, 100%)" stroke-width="1.5"></path><path d="M1298.82 -69.88L1258.09 231.85" stroke="hsl(0, 0%, 100%)" stroke-width="1.5"></path><path d="M1298.82 -69.88L1156.25 246.68" stroke="hsl(0, 0%, 100%)" stroke-width="1.5"></path><path d="M1292.46 80.89L1292.46 80.89" stroke="hsl(0, 0%, 100%)" stroke-width="1.5"></path><path d="M1292.46 80.89L1258.09 231.85" stroke="hsl(0, 0%, 100%)" stroke-width="1.5"></path><path d="M1292.46 80.89L1456.05 81.08" stroke="hsl(0, 0%, 100%)" stroke-width="1.5"></path><path d="M1292.46 80.89L1156.25 246.68" stroke="hsl(0, 0%, 100%)" stroke-width="1.5"></path><path d="M1292.46 80.89L1418.16 -94.63" stroke="hsl(0, 0%, 100%)" stroke-width="1.5"></path><path d="M1292.46 80.89L1441.48 254.46" stroke="hsl(0, 0%, 100%)" stroke-width="1.5"></path><path d="M1302.78 399.44L1302.78 399.44" stroke="hsl(0, 0%, 100%)" stroke-width="1.5"></path><path d="M1302.78 399.44L1306 492.58" stroke="hsl(0, 0%, 100%)" stroke-width="1.5"></path><path d="M1302.78 399.44L1149.06 380.37" stroke="hsl(0, 0%, 100%)" stroke-width="1.5"></path><path d="M1302.78 399.44L1458.79 398.35" stroke="hsl(0, 0%, 100%)" stroke-width="1.5"></path><path d="M1302.78 399.44L1258.09 231.85" stroke="hsl(0, 0%, 100%)" stroke-width="1.5"></path><path d="M1306 492.58L1306 492.58" stroke="hsl(0, 0%, 100%)" stroke-width="1.5"></path><path d="M1306 492.58L1457.27 490.71" stroke="hsl(0, 0%, 100%)" stroke-width="1.5"></path><path d="M1306 492.58L1458.79 398.35" stroke="hsl(0, 0%, 100%)" stroke-width="1.5"></path><path d="M1266.84 684.71L1266.84 684.71" stroke="hsl(0, 0%, 100%)" stroke-width="1.5"></path><path d="M1266.84 684.71L1148.95 638.1" stroke="hsl(0, 0%, 100%)" stroke-width="1.5"></path><path d="M1266.84 684.71L1425.79 695.7" stroke="hsl(0, 0%, 100%)" stroke-width="1.5"></path><path d="M1266.84 684.71L1306 492.58" stroke="hsl(0, 0%, 100%)" stroke-width="1.5"></path><path d="M1266.84 684.71L1100.32 552.06" stroke="hsl(0, 0%, 100%)" stroke-width="1.5"></path><path d="M1266.84 684.71L1457.27 490.71" stroke="hsl(0, 0%, 100%)" stroke-width="1.5"></path><path d="M1266.84 684.71L1302.78 399.44" stroke="hsl(0, 0%, 100%)" stroke-width="1.5"></path><path d="M1425.79 695.7L1425.79 695.7" stroke="hsl(0, 0%, 100%)" stroke-width="1.5"></path><path d="M1425.79 695.7L1571.04 657.17" stroke="hsl(0, 0%, 100%)" stroke-width="1.5"></path><path d="M1425.79 695.7L1580.24 558.54" stroke="hsl(0, 0%, 100%)" stroke-width="1.5"></path><path d="M1425.79 695.7L1457.27 490.71" stroke="hsl(0, 0%, 100%)" stroke-width="1.5"></path><path d="M1575.77 403.49L1575.77 403.49" stroke="hsl(0, 0%, 100%)" stroke-width="1.5"></path><path d="M1575.77 403.49L1458.79 398.35" stroke="hsl(0, 0%, 100%)" stroke-width="1.5"></path><path d="M1575.77 403.49L1457.27 490.71" stroke="hsl(0, 0%, 100%)" stroke-width="1.5"></path><path d="M1575.77 403.49L1580.24 558.54" stroke="hsl(0, 0%, 100%)" stroke-width="1.5"></path><path d="M-44.94 515.47L-44.94 515.47" stroke="hsl(0, 0%, 100%)" stroke-width="1.5"></path><path d="M-44.94 515.47L54.56 543.74" stroke="hsl(0, 0%, 100%)" stroke-width="1.5"></path><path d="M-44.94 515.47L87.01 639.27" stroke="hsl(0, 0%, 100%)" stroke-width="1.5"></path><path d="M-44.94 515.47L-89.78 705.53" stroke="hsl(0, 0%, 100%)" stroke-width="1.5"></path><path d="M-89.78 705.53L-89.78 705.53" stroke="hsl(0, 0%, 100%)" stroke-width="1.5"></path><path d="M-89.78 705.53L87.01 639.27" stroke="hsl(0, 0%, 100%)" stroke-width="1.5"></path><path d="M-89.78 705.53L54.56 543.74" stroke="hsl(0, 0%, 100%)" stroke-width="1.5"></path><path d="M-89.78 705.53L248.97 641.63" stroke="hsl(0, 0%, 100%)" stroke-width="1.5"></path><path d="M-89.78 705.53L197.34 505.68" stroke="hsl(0, 0%, 100%)" stroke-width="1.5"></path><path d="M54.56 543.74L54.56 543.74" stroke="hsl(0, 0%, 100%)" stroke-width="1.5"></path><path d="M54.56 543.74L87.01 639.27" stroke="hsl(0, 0%, 100%)" stroke-width="1.5"></path><path d="M54.56 543.74L197.34 505.68" stroke="hsl(0, 0%, 100%)" stroke-width="1.5"></path><path d="M87.01 639.27L87.01 639.27" stroke="hsl(0, 0%, 100%)" stroke-width="1.5"></path><path d="M87.01 639.27L248.97 641.63" stroke="hsl(0, 0%, 100%)" stroke-width="1.5"></path><path d="M87.01 639.27L197.34 505.68" stroke="hsl(0, 0%, 100%)" stroke-width="1.5"></path><path d="M197.34 505.68L197.34 505.68" stroke="hsl(0, 0%, 100%)" stroke-width="1.5"></path><path d="M197.34 505.68L248.97 641.63" stroke="hsl(0, 0%, 100%)" stroke-width="1.5"></path><path d="M248.97 641.63L248.97 641.63" stroke="hsl(0, 0%, 100%)" stroke-width="1.5"></path><path d="M248.97 641.63L394.04 551.21" stroke="hsl(0, 0%, 100%)" stroke-width="1.5"></path><path d="M394.04 551.21L394.04 551.21" stroke="hsl(0, 0%, 100%)" stroke-width="1.5"></path><path d="M394.04 551.21L197.34 505.68" stroke="hsl(0, 0%, 100%)" stroke-width="1.5"></path><path d="M394.04 551.21L554.77 393.2" stroke="hsl(0, 0%, 100%)" stroke-width="1.5"></path><path d="M554.77 393.2L554.77 393.2" stroke="hsl(0, 0%, 100%)" stroke-width="1.5"></path><path d="M554.77 393.2L653.85 396.57" stroke="hsl(0, 0%, 100%)" stroke-width="1.5"></path><path d="M554.77 393.2L696.45 536.31" stroke="hsl(0, 0%, 100%)" stroke-width="1.5"></path><path d="M653.85 396.57L653.85 396.57" stroke="hsl(0, 0%, 100%)" stroke-width="1.5"></path><path d="M653.85 396.57L790.55 361.58" stroke="hsl(0, 0%, 100%)" stroke-width="1.5"></path><path d="M653.85 396.57L696.45 536.31" stroke="hsl(0, 0%, 100%)" stroke-width="1.5"></path><path d="M653.85 396.57L797.36 552.17" stroke="hsl(0, 0%, 100%)" stroke-width="1.5"></path><path d="M696.45 536.31L696.45 536.31" stroke="hsl(0, 0%, 100%)" stroke-width="1.5"></path><path d="M696.45 536.31L797.36 552.17" stroke="hsl(0, 0%, 100%)" stroke-width="1.5"></path><path d="M684.77 710.32L684.77 710.32" stroke="hsl(0, 0%, 100%)" stroke-width="1.5"></path><path d="M684.77 710.32L811.69 674.14" stroke="hsl(0, 0%, 100%)" stroke-width="1.5"></path><path d="M684.77 710.32L696.45 536.31" stroke="hsl(0, 0%, 100%)" stroke-width="1.5"></path><path d="M684.77 710.32L510.34 656.03" stroke="hsl(0, 0%, 100%)" stroke-width="1.5"></path><path d="M684.77 710.32L797.36 552.17" stroke="hsl(0, 0%, 100%)" stroke-width="1.5"></path><path d="M790.55 361.58L790.55 361.58" stroke="hsl(0, 0%, 100%)" stroke-width="1.5"></path><path d="M790.55 361.58L975.69 378.23" stroke="hsl(0, 0%, 100%)" stroke-width="1.5"></path><path d="M790.55 361.58L797.36 552.17" stroke="hsl(0, 0%, 100%)" stroke-width="1.5"></path><path d="M790.55 361.58L696.45 536.31" stroke="hsl(0, 0%, 100%)" stroke-width="1.5"></path><path d="M797.36 552.17L797.36 552.17" stroke="hsl(0, 0%, 100%)" stroke-width="1.5"></path><path d="M797.36 552.17L811.69 674.14" stroke="hsl(0, 0%, 100%)" stroke-width="1.5"></path><path d="M811.69 674.14L811.69 674.14" stroke="hsl(0, 0%, 100%)" stroke-width="1.5"></path><path d="M992.03 245.05L992.03 245.05" stroke="hsl(0, 0%, 100%)" stroke-width="1.5"></path><path d="M992.03 245.05L975.69 378.23" stroke="hsl(0, 0%, 100%)" stroke-width="1.5"></path><path d="M992.03 245.05L1156.25 246.68" stroke="hsl(0, 0%, 100%)" stroke-width="1.5"></path><path d="M975.69 378.23L975.69 378.23" stroke="hsl(0, 0%, 100%)" stroke-width="1.5"></path><path d="M975.69 378.23L1149.06 380.37" stroke="hsl(0, 0%, 100%)" stroke-width="1.5"></path><path d="M975.69 378.23L956.28 557.12" stroke="hsl(0, 0%, 100%)" stroke-width="1.5"></path><path d="M975.69 378.23L1100.32 552.06" stroke="hsl(0, 0%, 100%)" stroke-width="1.5"></path><path d="M1156.25 246.68L1156.25 246.68" stroke="hsl(0, 0%, 100%)" stroke-width="1.5"></path><path d="M1156.25 246.68L1258.09 231.85" stroke="hsl(0, 0%, 100%)" stroke-width="1.5"></path><path d="M1156.25 246.68L1149.06 380.37" stroke="hsl(0, 0%, 100%)" stroke-width="1.5"></path><path d="M1149.06 380.37L1149.06 380.37" stroke="hsl(0, 0%, 100%)" stroke-width="1.5"></path><path d="M1149.06 380.37L1100.32 552.06" stroke="hsl(0, 0%, 100%)" stroke-width="1.5"></path><path d="M1100.32 552.06L1100.32 552.06" stroke="hsl(0, 0%, 100%)" stroke-width="1.5"></path><path d="M1100.32 552.06L1148.95 638.1" stroke="hsl(0, 0%, 100%)" stroke-width="1.5"></path><path d="M1100.32 552.06L1306 492.58" stroke="hsl(0, 0%, 100%)" stroke-width="1.5"></path><path d="M1148.95 638.1L1148.95 638.1" stroke="hsl(0, 0%, 100%)" stroke-width="1.5"></path><path d="M1148.95 638.1L956.28 557.12" stroke="hsl(0, 0%, 100%)" stroke-width="1.5"></path><path d="M1258.09 231.85L1258.09 231.85" stroke="hsl(0, 0%, 100%)" stroke-width="1.5"></path><path d="M1258.09 231.85L1149.06 380.37" stroke="hsl(0, 0%, 100%)" stroke-width="1.5"></path><path d="M1258.09 231.85L1441.48 254.46" stroke="hsl(0, 0%, 100%)" stroke-width="1.5"></path><path d="M1418.16 -94.63L1418.16 -94.63" stroke="hsl(0, 0%, 100%)" stroke-width="1.5"></path><path d="M1418.16 -94.63L1564.98 -105.9" stroke="hsl(0, 0%, 100%)" stroke-width="1.5"></path><path d="M1456.05 81.08L1456.05 81.08" stroke="hsl(0, 0%, 100%)" stroke-width="1.5"></path><path d="M1456.05 81.08L1441.48 254.46" stroke="hsl(0, 0%, 100%)" stroke-width="1.5"></path><path d="M1456.05 81.08L1418.16 -94.63" stroke="hsl(0, 0%, 100%)" stroke-width="1.5"></path><path d="M1456.05 81.08L1564.98 -105.9" stroke="hsl(0, 0%, 100%)" stroke-width="1.5"></path><path d="M1441.48 254.46L1441.48 254.46" stroke="hsl(0, 0%, 100%)" stroke-width="1.5"></path><path d="M1441.48 254.46L1458.79 398.35" stroke="hsl(0, 0%, 100%)" stroke-width="1.5"></path><path d="M1441.48 254.46L1575.77 403.49" stroke="hsl(0, 0%, 100%)" stroke-width="1.5"></path><path d="M1458.79 398.35L1458.79 398.35" stroke="hsl(0, 0%, 100%)" stroke-width="1.5"></path><path d="M1458.79 398.35L1457.27 490.71" stroke="hsl(0, 0%, 100%)" stroke-width="1.5"></path><path d="M1457.27 490.71L1457.27 490.71" stroke="hsl(0, 0%, 100%)" stroke-width="1.5"></path><path d="M1457.27 490.71L1580.24 558.54" stroke="hsl(0, 0%, 100%)" stroke-width="1.5"></path><path d="M1457.27 490.71L1302.78 399.44" stroke="hsl(0, 0%, 100%)" stroke-width="1.5"></path><path d="M1457.27 490.71L1571.04 657.17" stroke="hsl(0, 0%, 100%)" stroke-width="1.5"></path><path d="M1564.98 -105.9L1564.98 -105.9" stroke="hsl(0, 0%, 100%)" stroke-width="1.5"></path><path d="M1564.98 -105.9L1292.46 80.89" stroke="hsl(0, 0%, 100%)" stroke-width="1.5"></path><path d="M1564.98 -105.9L1441.48 254.46" stroke="hsl(0, 0%, 100%)" stroke-width="1.5"></path><path d="M1580.24 558.54L1580.24 558.54" stroke="hsl(0, 0%, 100%)" stroke-width="1.5"></path><path d="M1580.24 558.54L1571.04 657.17" stroke="hsl(0, 0%, 100%)" stroke-width="1.5"></path><path d="M1571.04 657.17L1571.04 657.17" stroke="hsl(0, 0%, 100%)" stroke-width="1.5"></path><path d="M1571.04 657.17L1575.77 403.49" stroke="hsl(0, 0%, 100%)" stroke-width="1.5"></path><path d="M1571.04 657.17L1458.79 398.35" stroke="hsl(0, 0%, 100%)" stroke-width="1.5"></path><circle r="25" cx="380.21" cy="675.41" fill="url(#SvgjsRadialGradient1001)"></circle><circle r="25" cx="548.52" cy="519.08" fill="url(#SvgjsRadialGradient1001)"></circle><circle r="25" cx="510.34" cy="656.03" fill="url(#SvgjsRadialGradient1001)"></circle><circle r="25" cx="956.28" cy="557.12" fill="url(#SvgjsRadialGradient1001)"></circle><circle r="25" cx="941.87" cy="703.32" fill="url(#SvgjsRadialGradient1001)"></circle><circle r="25" cx="1298.82" cy="-69.88" fill="url(#SvgjsRadialGradient1001)"></circle><circle r="25" cx="1292.46" cy="80.89" fill="url(#SvgjsRadialGradient1001)"></circle><circle r="25" cx="1302.78" cy="399.44" fill="url(#SvgjsRadialGradient1001)"></circle><circle r="25" cx="1306" cy="492.58" fill="url(#SvgjsRadialGradient1001)"></circle><circle r="25" cx="1266.84" cy="684.71" fill="url(#SvgjsRadialGradient1001)"></circle><circle r="25" cx="1425.79" cy="695.7" fill="url(#SvgjsRadialGradient1001)"></circle><circle r="25" cx="1575.77" cy="403.49" fill="url(#SvgjsRadialGradient1001)"></circle><circle r="5" cx="-44.94" cy="515.47" fill="#ffffff"></circle><circle r="5" cx="-89.78" cy="705.53" fill="#ffffff"></circle><circle r="5" cx="54.56" cy="543.74" fill="#ffffff"></circle><circle r="5" cx="87.01" cy="639.27" fill="#ffffff"></circle><circle r="5" cx="197.34" cy="505.68" fill="#ffffff"></circle><circle r="5" cx="248.97" cy="641.63" fill="#ffffff"></circle><circle r="5" cx="394.04" cy="551.21" fill="#ffffff"></circle><circle r="5" cx="554.77" cy="393.2" fill="#ffffff"></circle><circle r="5" cx="653.85" cy="396.57" fill="#ffffff"></circle><circle r="5" cx="696.45" cy="536.31" fill="#ffffff"></circle><circle r="5" cx="684.77" cy="710.32" fill="#ffffff"></circle><circle r="5" cx="790.55" cy="361.58" fill="#ffffff"></circle><circle r="5" cx="797.36" cy="552.17" fill="#ffffff"></circle><circle r="5" cx="811.69" cy="674.14" fill="#ffffff"></circle><circle r="5" cx="992.03" cy="245.05" fill="#ffffff"></circle><circle r="5" cx="975.69" cy="378.23" fill="#ffffff"></circle><circle r="5" cx="1156.25" cy="246.68" fill="#ffffff"></circle><circle r="5" cx="1149.06" cy="380.37" fill="#ffffff"></circle><circle r="5" cx="1100.32" cy="552.06" fill="#ffffff"></circle><circle r="5" cx="1148.95" cy="638.1" fill="#ffffff"></circle><circle r="5" cx="1258.09" cy="231.85" fill="#ffffff"></circle><circle r="5" cx="1418.16" cy="-94.63" fill="#ffffff"></circle><circle r="5" cx="1456.05" cy="81.08" fill="#ffffff"></circle><circle r="5" cx="1441.48" cy="254.46" fill="#ffffff"></circle><circle r="5" cx="1458.79" cy="398.35" fill="#ffffff"></circle><circle r="5" cx="1457.27" cy="490.71" fill="#ffffff"></circle><circle r="5" cx="1564.98" cy="-105.9" fill="#ffffff"></circle><circle r="5" cx="1580.24" cy="558.54" fill="#ffffff"></circle><circle r="5" cx="1571.04" cy="657.17" fill="#ffffff"></circle></g><defs><mask id="SvgjsMask1000"><rect width="1440" height="560" fill="#ffffff"></rect></mask><radialGradient id="SvgjsRadialGradient1001"><stop stop-color="#ffffff" offset="0.1"></stop><stop stop-color="rgba(255, 255, 255, 1)" offset="0.2"></stop><stop stop-color="rgba(255, 255, 255, 0)" offset="1"></stop></radialGradient></defs></svg>