<svg xmlns="http://www.w3.org/2000/svg" version="1.1" xmlns:xlink="http://www.w3.org/1999/xlink" xmlns:svgjs="http://svgjs.dev/svgjs" width="1920" height="1080" preserveAspectRatio="none" viewBox="0 0 1920 1080"><g mask="url(&quot;#SvgjsMask1007&quot;)" fill="none"><path d="M -783.0359743753208,593 C -655.04,534.4 -399.04,262.8 -143.03597437532085,300 C 112.96,337.2 240.96,743.6 496.96402562467915,779 C 752.96,814.4 880.96,476.4 1136.9640256246792,477 C 1392.96,477.6 1620.36,794.8 1776.9640256246792,782 C 1933.57,769.2 1891.39,486.8 1920,413" stroke="rgba(11, 19, 178, 1)" stroke-width="2"></path><path d="M -165.88330201822532,602 C -37.88,536.6 218.12,236.6 474.1166979817747,275 C 730.12,313.4 858.12,808.8 1114.1166979817747,794 C 1370.12,779.2 1498.12,202 1754.1166979817747,201 C 2010.12,200 2360.94,795.4 2394.1166979817745,789 C 2427.29,782.6 2014.82,293 1920,169" stroke="rgba(11, 19, 178, 1)" stroke-width="2"></path><path d="M -232.3285803247153,585 C -104.33,553.8 151.67,381.8 407.6714196752847,429 C 663.67,476.2 791.67,854.6 1047.6714196752846,821 C 1303.67,787.4 1431.67,292.6 1687.6714196752846,261 C 1943.67,229.4 2281.21,656 2327.6714196752846,663 C 2374.14,670 2001.53,369.4 1920,296" stroke="rgba(11, 19, 178, 1)" stroke-width="2"></path><path d="M -27.38515864108126,467 C 100.61,504.4 356.61,658.8 612.6148413589187,654 C 868.61,649.2 996.61,395 1252.6148413589187,443 C 1508.61,491 1636.61,929.8 1892.6148413589187,894 C 2148.61,858.2 2527.14,298.4 2532.614841358919,264 C 2538.09,229.6 2042.52,630.4 1920,722" stroke="rgba(140, 148, 233, 1)" stroke-width="2"></path><path d="M -606.9476905607537,644 C -478.95,583.6 -222.95,359.8 33.05230943924634,342 C 289.05,324.2 417.05,552.2 673.0523094392463,555 C 929.05,557.8 1057.05,353.2 1313.0523094392463,356 C 1569.05,358.8 1831.66,560.6 1953.0523094392463,569 C 2074.44,577.4 1926.61,432.2 1920,398" stroke="rgba(140, 148, 233, 1)" stroke-width="2"></path><path d="M -141.84235292289515,850 C -13.84,749 242.16,369.2 498.15764707710485,345 C 754.16,320.8 882.16,740.8 1138.157647077105,729 C 1394.16,717.2 1522.16,307 1778.157647077105,286 C 2034.16,265 2389.79,613.2 2418.1576470771047,624 C 2446.53,634.8 2019.63,396.8 1920,340" stroke="rgba(11, 19, 178, 1)" stroke-width="2"></path></g><defs><mask id="SvgjsMask1007"><rect width="1920" height="1080" fill="#ffffff"></rect></mask></defs></svg>