<svg xmlns="http://www.w3.org/2000/svg" version="1.1" xmlns:xlink="http://www.w3.org/1999/xlink" xmlns:svgjs="http://svgjs.dev/svgjs" width="1920" height="1080" preserveAspectRatio="none" viewBox="0 0 1920 1080"><g mask="url(&quot;#SvgjsMask1010&quot;)" fill="none"><path d="M -23.883952570980227,250 C 104.12,309.6 360.12,574.4 616.1160474290198,548 C 872.12,521.6 1000.12,67 1256.1160474290198,118 C 1512.12,169 1640.12,737.4 1896.1160474290198,803 C 2152.12,868.6 2531.34,488.8 2536.11604742902,446 C 2540.89,403.2 2043.22,560.4 1920,589" stroke="rgba(16, 13, 37, 1)" stroke-width="2"></path><path d="M -791.1596602196636,757 C -663.16,668.6 -407.16,291.4 -151.15966021966358,315 C 104.84,338.6 232.84,855.8 488.8403397803364,875 C 744.84,894.2 872.84,398.8 1128.8403397803363,411 C 1384.84,423.2 1610.61,989.4 1768.8403397803363,936 C 1927.07,882.6 1889.77,302.4 1920,144" stroke="rgba(49, 59, 172, 1)" stroke-width="2"></path><path d="M -252.40522177313045,447 C -124.41,537.2 131.59,886.6 387.59477822686955,898 C 643.59,909.4 771.59,570.6 1027.5947782268695,504 C 1283.59,437.4 1411.59,592.6 1667.5947782268695,565 C 1923.59,537.4 2257.11,292.2 2307.5947782268695,366 C 2358.08,439.8 1997.52,820.4 1920,934" stroke="rgba(49, 59, 172, 1)" stroke-width="2"></path><path d="M -246.0782596249723,804 C -118.08,711 137.92,335.8 393.9217403750277,339 C 649.92,342.2 777.92,810.4 1033.9217403750276,820 C 1289.92,829.6 1417.92,413.2 1673.9217403750276,387 C 1929.92,360.8 2264.71,687.2 2313.9217403750276,689 C 2363.14,690.8 1998.78,454.6 1920,396" stroke="rgba(16, 13, 37, 1)" stroke-width="2"></path><path d="M -463.6341335100411,724 C -335.63,621.8 -79.63,213.8 176.36586648995888,213 C 432.37,212.2 560.37,718 816.3658664899589,720 C 1072.37,722 1200.37,219.2 1456.365866489959,223 C 1712.37,226.8 2003.64,759.8 2096.365866489959,739 C 2189.09,718.2 1955.27,243 1920,119" stroke="rgba(49, 59, 172, 1)" stroke-width="2"></path><path d="M -403.19756822801986,785 C -275.2,715.2 -19.2,454.4 236.80243177198014,436 C 492.8,417.6 620.8,726.4 876.8024317719801,693 C 1132.8,659.6 1260.8,266.4 1516.80243177198,269 C 1772.8,271.6 2076.16,659.6 2156.80243177198,706 C 2237.44,752.4 1967.36,542 1920,501" stroke="rgba(16, 13, 37, 1)" stroke-width="2"></path></g><defs><mask id="SvgjsMask1010"><rect width="1920" height="1080" fill="#ffffff"></rect></mask></defs></svg>