<svg xmlns="http://www.w3.org/2000/svg" version="1.1" xmlns:xlink="http://www.w3.org/1999/xlink" xmlns:svgjs="http://svgjs.dev/svgjs" width="1920" height="1080" preserveAspectRatio="none" viewBox="0 0 1920 1080"><g mask="url(&quot;#SvgjsMask1009&quot;)" fill="none"><path d="M -134.44289758058517,128 C -6.44,258.6 249.56,727.2 505.55710241941483,781 C 761.56,834.8 889.56,414.6 1145.5571024194148,397 C 1401.56,379.4 1529.56,745 1785.5571024194148,693 C 2041.56,641 2398.67,152.4 2425.557102419415,137 C 2452.45,121.6 2021.11,520.2 1920,616" stroke="rgba(16, 13, 37, 1)" stroke-width="2"></path><path d="M -1004.8252824338358,829 C -876.83,746.6 -620.83,434.6 -364.82528243383575,417 C -108.83,399.4 19.17,728 275.17471756616425,741 C 531.17,754 659.17,480 915.1747175661642,482 C 1171.17,484 1354.21,744.2 1555.1747175661642,751 C 1756.14,757.8 1847.03,563 1920,516" stroke="rgba(16, 13, 37, 1)" stroke-width="2"></path><path d="M -824.0853880762158,549 C -696.09,500.4 -440.09,295 -184.08538807621582,306 C 71.91,317 199.91,590.8 455.91461192378415,604 C 711.91,617.2 839.91,373.2 1095.9146119237842,372 C 1351.91,370.8 1571.1,586.2 1735.9146119237842,598 C 1900.73,609.8 1883.18,464.4 1920,431" stroke="rgba(140, 148, 233, 1)" stroke-width="2"></path><path d="M -286.7699908475836,841 C -158.77,758.4 97.23,467.6 353.2300091524164,428 C 609.23,388.4 737.23,636.4 993.2300091524164,643 C 1249.23,649.6 1377.23,454.8 1633.2300091524164,461 C 1889.23,467.2 2215.88,725 2273.2300091524166,674 C 2330.58,623 1990.65,299.6 1920,206" stroke="rgba(140, 148, 233, 1)" stroke-width="2"></path><path d="M -59.870285067937175,513 C 68.13,601.6 324.13,1023.8 580.1297149320628,956 C 836.13,888.2 964.13,252.6 1220.1297149320628,174 C 1476.13,95.4 1604.13,573.2 1860.1297149320628,563 C 2116.13,552.8 2488.16,87.4 2500.1297149320626,123 C 2512.1,158.6 2036.03,617.4 1920,741" stroke="rgba(16, 13, 37, 1)" stroke-width="2"></path><path d="M -245.62625980224016,281 C -117.63,386.2 138.37,826 394.37374019775984,807 C 650.37,788 778.37,164.6 1034.3737401977598,186 C 1290.37,207.4 1418.37,929.4 1674.3737401977598,914 C 1930.37,898.6 2265.25,99.6 2314.3737401977596,109 C 2363.5,118.4 1998.87,790.6 1920,961" stroke="rgba(16, 13, 37, 1)" stroke-width="2"></path></g><defs><mask id="SvgjsMask1009"><rect width="1920" height="1080" fill="#ffffff"></rect></mask></defs></svg>