<svg xmlns="http://www.w3.org/2000/svg" version="1.1" xmlns:xlink="http://www.w3.org/1999/xlink" xmlns:svgjs="http://svgjs.dev/svgjs" width="1920" height="1080" preserveAspectRatio="none" viewBox="0 0 1920 1080"><g mask="url(&quot;#SvgjsMask1038&quot;)" fill="none"><path d="M78.97 997.84a71.7 71.7 0 1 0 30.63-140.09z" stroke="rgba(0, 20, 255, 1)"></path><path d="M1198.59 464.3L1210.61 464.3L1210.61 511.37L1198.59 511.37z" fill="rgba(111, 244, 255, 1)"></path><path d="M1712.48 148.51a42.45 42.45 0 1 0-31.12 78.99z" fill="rgba(92, 105, 255, 1)"></path><path d="M453.08 278.08L472.13 278.08L472.13 297.13L453.08 297.13z" stroke="rgba(92, 105, 255, 1)"></path><path d="M1218.03 479.78a67.29 67.29 0 1 0 105.62-83.4z" fill="rgba(92, 105, 255, 1)"></path><path d="M1599.45 666.26 a79.97 79.97 0 1 0 159.94 0 a79.97 79.97 0 1 0 -159.94 0z" fill="rgba(0, 20, 255, 1)"></path><path d="M1132.39 739.68L1133.34 739.68L1133.34 740.63L1132.39 740.63z" stroke="rgba(92, 105, 255, 1)"></path><path d="M1259.73 346.87 a22.63 22.63 0 1 0 45.26 0 a22.63 22.63 0 1 0 -45.26 0z" stroke="rgba(92, 105, 255, 1)"></path><path d="M1642.63 915.85L1651.6 915.85L1651.6 944.19L1642.63 944.19z" stroke="rgba(111, 244, 255, 1)"></path><path d="M1099.88 278.75L1187.86 278.75L1187.86 347.16L1099.88 347.16z" fill="rgba(92, 105, 255, 1)"></path><path d="M633.74 706.96L691.04 706.96L691.04 764.26L633.74 764.26z" fill="rgba(92, 105, 255, 1)"></path><path d="M-26.04 613.45 a99.8 99.8 0 1 0 199.6 0 a99.8 99.8 0 1 0 -199.6 0z" stroke="rgba(0, 20, 255, 1)"></path><path d="M764.8 531.09L868.97 531.09L868.97 600.15L764.8 600.15z" stroke="rgba(111, 244, 255, 1)"></path><path d="M122.68 32.47 a3.62 3.62 0 1 0 7.24 0 a3.62 3.62 0 1 0 -7.24 0z" fill="rgba(92, 105, 255, 1)"></path><path d="M1072.66 903.04L1110.75 903.04L1110.75 941.13L1072.66 941.13z" fill="rgba(0, 20, 255, 1)"></path><path d="M182.09 1048.02L279.99 1048.02L279.99 1145.92L182.09 1145.92z" stroke="rgba(141, 0, 255, 1)"></path><path d="M118.63 113.32a107.83 107.83 0 1 0 197.76 86.04z" stroke="rgba(92, 105, 255, 1)"></path><path d="M490.33 416.86a39.74 39.74 0 1 0-54.51-57.84z" fill="rgba(92, 105, 255, 1)"></path><path d="M1591.52 994.18L1622.64 994.18L1622.64 1025.3L1591.52 1025.3z" stroke="rgba(92, 105, 255, 1)"></path><path d="M448.06 343.52L454.46 343.52L454.46 373.59L448.06 373.59z" fill="rgba(141, 0, 255, 1)"></path><path d="M150.38 906.77L196.4 906.77L196.4 952.79L150.38 952.79z" stroke="rgba(111, 244, 255, 1)"></path><path d="M1330.37 412.51 a45.31 45.31 0 1 0 90.62 0 a45.31 45.31 0 1 0 -90.62 0z" stroke="rgba(92, 105, 255, 1)"></path><path d="M209.08 862.24L314.39 862.24L314.39 872.73L209.08 872.73z" fill="rgba(141, 0, 255, 1)"></path></g><defs><mask id="SvgjsMask1038"><rect width="1920" height="1080" fill="#ffffff"></rect></mask></defs></svg>