<svg xmlns="http://www.w3.org/2000/svg" version="1.1" xmlns:xlink="http://www.w3.org/1999/xlink" xmlns:svgjs="http://svgjs.dev/svgjs" viewBox="0 0 800 800" opacity="0.29"><defs><filter id="bbburst-blur-1" x="-100%" y="-100%" width="400%" height="400%"><feGaussianBlur in="SourceGraphic" stdDeviation="1"></feGaussianBlur></filter><filter id="bbburst-blur-2" x="-100%" y="-100%" width="400%" height="400%"><feGaussianBlur in="SourceGraphic" stdDeviation="2"></feGaussianBlur></filter><filter id="bbburst-blur-3" x="-100%" y="-100%" width="400%" height="400%"><feGaussianBlur in="SourceGraphic" stdDeviation="4"></feGaussianBlur></filter><filter id="bbburst-blur-4" x="-100%" y="-100%" width="400%" height="400%"><feGaussianBlur in="SourceGraphic" stdDeviation="12"></feGaussianBlur></filter><symbol id="bbburst-shape-1" viewBox="0 0 194 167"><path d="m97 0 96.129 166.5H.871L97 0Z"></path></symbol><symbol id="bbburst-shape-4" viewBox="0 0 149 143"><path d="M71.647 2.781c.898-2.764 4.808-2.764 5.706 0l15.445 47.534a3 3 0 0 0 2.853 2.073h49.98c2.906 0 4.115 3.719 1.764 5.427L106.96 87.193a2.999 2.999 0 0 0-1.09 3.354l15.445 47.534c.898 2.764-2.266 5.062-4.617 3.354l-40.435-29.378a3 3 0 0 0-3.526 0l-40.435 29.378c-2.351 1.708-5.515-.59-4.617-3.354L43.13 90.547a3 3 0 0 0-1.09-3.354L1.605 57.815c-2.35-1.708-1.142-5.427 1.764-5.427h49.98a3 3 0 0 0 2.853-2.073L71.647 2.781Z"></path></symbol><symbol id="bbburst-shape-8" viewBox="0 0 87 168"><path d="m12 12 31.2546 18.0749c16.4102 9.4902 20.014 31.6325 7.4603 45.8369L36.3296 92.1884c-12.5684 14.2206-8.9394 36.3916 7.5068 45.8636L75 156" stroke-width="14" stroke-linecap="round" stroke-linejoin="round"></path></symbol><symbol id="bbburst-shape-9" viewBox="0 0 182 172"><path d="M13.5809 69.845 91 13.5967l77.419 56.2483-29.571 91.012H43.1524L13.5809 69.845Z" stroke-width="22"></path></symbol><symbol id="bbburst-shape-10" viewBox="0 0 145 145"><circle cx="72.5" cy="72.5" r="61.5" fill="none" stroke-width="22"></circle></symbol></defs><use xlink:href="#bbburst-shape-8" width="25.871557132634642" opacity="0.4524157867609856" transform="matrix(0.9920004861689179,-0.12623405024251821,0.12623405024251821,0.9920004861689179,569.265978684231,86.19806178946857)" fill="none" stroke="#ffa6d5" filter="url(#bbburst-blur-2)"></use><use xlink:href="#bbburst-shape-4" width="35.26571000486264" opacity="0.18517800427546127" transform="matrix(1.1239491661969505,0.5470267560231218,-0.5470267560231218,1.1239491661969505,234.4388662239847,-98.69173034606462)" fill="#ffbd9b" filter="url(#bbburst-blur-3)"></use><use xlink:href="#bbburst-shape-8" width="15.553224581578034" opacity="0.8368591258917405" transform="matrix(0.985224370834234,0.17126861684000297,-0.17126861684000297,0.985224370834234,387.68669595545066,-1.5272821650041237)" fill="none" stroke="#ffa6d5"></use><use xlink:href="#bbburst-shape-8" width="36.22177134610706" opacity="0.06282702017593489" transform="matrix(1.558750734157889,-0.7954848513719429,0.7954848513719429,1.558750734157889,-302.3899730365217,17.054449077339882)" fill="none" stroke="#ffa6d5" filter="url(#bbburst-blur-4)"></use><use xlink:href="#bbburst-shape-10" width="26.542289325034208" opacity="0.1789245254668025" transform="matrix(1.0099325298594972,0.7365706246732867,-0.7365706246732867,1.0099325298594972,746.697774733896,349.88869029461466)" fill="none" stroke="#2c2891" filter="url(#bbburst-blur-3)"></use><use xlink:href="#bbburst-shape-9" width="9.933353144545245" opacity="0.9057986685496946" transform="matrix(0.83189509353637,0.5549329268930743,-0.5549329268930743,0.83189509353637,581.0860776528897,43.37599711889794)" fill="none" stroke="#2c2891"></use><use xlink:href="#bbburst-shape-9" width="14.805645702912916" opacity="0.7376426941441827" transform="matrix(0.8639378071402621,0.5035985160757279,-0.5035985160757279,0.8639378071402621,561.6665969034356,163.84024920621175)" fill="none" stroke="#ffa6d5" filter="url(#bbburst-blur-1)"></use><use xlink:href="#bbburst-shape-1" width="25.944662103251403" opacity="0.30550317950281103" transform="matrix(1.1150811878494842,-0.5648840097791612,0.5648840097791612,1.1150811878494842,164.04710500264494,273.8246054513038)" fill="#00a19d" filter="url(#bbburst-blur-3)"></use><use xlink:href="#bbburst-shape-9" width="43.08494071799479" opacity="0.1857570146276133" transform="matrix(1.080686058445037,-0.6281859940197092,0.6281859940197092,1.080686058445037,376.22193617747007,-286.0297683833784)" fill="none" stroke="#2c2891" filter="url(#bbburst-blur-3)"></use><use xlink:href="#bbburst-shape-1" width="17.82483838536951" opacity="0.8183539881551222" transform="matrix(0.9421995745657504,0.3350521775606284,-0.3350521775606284,0.9421995745657504,458.27954965702065,-26.18388223520151)" fill="#ffa6d5"></use><use xlink:href="#bbburst-shape-10" width="40.48073692438721" opacity="-0.07427365114522999" transform="matrix(1.4118508179014304,1.0340102842772223,-1.0340102842772223,1.4118508179014304,1137.3053092001783,145.38752588980037)" fill="none" stroke="#2c2891" filter="url(#bbburst-blur-4)"></use><use xlink:href="#bbburst-shape-4" width="38.410021391117894" opacity="0.2982132515052711" transform="matrix(1.056589186918894,0.6679216197175164,-0.6679216197175164,1.056589186918894,344.7742542841436,-127.51495695307813)" fill="#ff5c58" filter="url(#bbburst-blur-3)"></use><use xlink:href="#bbburst-shape-9" width="42.00306974897949" opacity="0.2955359665846984" transform="matrix(0.9363782050278835,-0.8280675438324818,0.8280675438324818,0.9363782050278835,325.8660604085791,-111.59935169648696)" fill="none" stroke="#ffa6d5" filter="url(#bbburst-blur-3)"></use><use xlink:href="#bbburst-shape-10" width="12.98090891897984" opacity="0.9646877258235815" transform="matrix(0.9191644273671327,-0.39387403501989193,0.39387403501989193,0.9191644273671327,230.32496323503534,20.24252033584702)" fill="none" stroke="#ffa6d5"></use><use xlink:href="#bbburst-shape-1" width="29.759047472553853" opacity="0.35529468820267207" transform="matrix(0.7149343668783515,0.6991915696404316,-0.6991915696404316,0.7149343668783515,640.8068765348943,-185.09303695407613)" fill="#2c2891" filter="url(#bbburst-blur-2)"></use><use xlink:href="#bbburst-shape-9" width="39.774933475906934" opacity="0.3307279769216903" transform="matrix(1.1692952065195554,0.4418695735286491,-0.4418695735286491,1.1692952065195554,430.80237527140184,-351.81489960155125)" fill="none" stroke="#00a19d" filter="url(#bbburst-blur-3)"></use><use xlink:href="#bbburst-shape-8" width="36.17440646971498" opacity="0.2008257706807901" transform="matrix(1.044344131611962,-0.6869099902954223,0.6869099902954223,1.044344131611962,262.2792449250005,318.7508834871064)" fill="none" stroke="#2c2891" filter="url(#bbburst-blur-3)"></use><use xlink:href="#bbburst-shape-9" width="24.28405961524519" opacity="0.7110030722700145" transform="matrix(0.8786786131213669,-0.4774137564451944,0.4774137564451944,0.8786786131213669,100.38248731921661,-31.41799159665527)" fill="none" stroke="#ff5c58" filter="url(#bbburst-blur-1)"></use><use xlink:href="#bbburst-shape-9" width="24.343902145318957" opacity="0.6366519066867236" transform="matrix(0.8242476521204437,0.5662294658298311,-0.5662294658298311,0.8242476521204437,536.1016047069066,-79.07162496251374)" fill="none" stroke="#00a19d" filter="url(#bbburst-blur-1)"></use><use xlink:href="#bbburst-shape-8" width="31.775948791809512" opacity="0.4872239224066497" transform="matrix(0.9256335887693545,-0.378421008061082,0.378421008061082,0.9256335887693545,228.11842613108752,266.4350589214112)" fill="none" stroke="#ff5c58" filter="url(#bbburst-blur-2)"></use><use xlink:href="#bbburst-shape-8" width="27.81220390844636" opacity="0.6312943930742949" transform="matrix(0.8817682162590219,0.47168295792341564,-0.47168295792341564,0.8817682162590219,487.16445440407784,180.6035192357192)" fill="none" stroke="#2c2891" filter="url(#bbburst-blur-1)"></use><use xlink:href="#bbburst-shape-10" width="33.197370576618425" opacity="0.06705584840067746" transform="matrix(1.6145350749851628,0.6751122067054149,-0.6751122067054149,1.6145350749851628,996.6986621290605,-483.5678536950421)" fill="none" stroke="#2c2891" filter="url(#bbburst-blur-4)"></use><use xlink:href="#bbburst-shape-1" width="28.801881337435425" opacity="0.5497926898051282" transform="matrix(0.7912162826537097,0.6115364208807559,-0.6115364208807559,0.7912162826537097,434.54667414092626,34.963667068243126)" fill="#00a19d" filter="url(#bbburst-blur-2)"></use><use xlink:href="#bbburst-shape-9" width="43.28759504790027" opacity="0.1021944369343637" transform="matrix(1.2623515044066789,-1.2120101811957666,1.2120101811957666,1.2623515044066789,79.24120191154839,-434.7014826334624)" fill="none" stroke="#ffa6d5" filter="url(#bbburst-blur-4)"></use><use xlink:href="#bbburst-shape-8" width="10.577094439815196" opacity="0.9102087235632242" transform="matrix(0.8013387809724765,0.5982107973862937,-0.5982107973862937,0.8013387809724765,620.8692281732965,114.13808568637342)" fill="none" stroke="#ffa6d5"></use><use xlink:href="#bbburst-shape-4" width="21.297808884505358" opacity="0.564605537695728" transform="matrix(0.7569964215666614,0.6534190215591137,-0.6534190215591137,0.7569964215666614,508.87595842670567,-42.14714510994747)" fill="#00a19d" filter="url(#bbburst-blur-1)"></use><use xlink:href="#bbburst-shape-9" width="32.75358972850444" opacity="0.3643119209441512" transform="matrix(0.9882142569185763,-0.1530770473417425,0.1530770473417425,0.9882142569185763,608.5464622560969,0.9156052700460009)" fill="none" stroke="#ff5c58" filter="url(#bbburst-blur-2)"></use><use xlink:href="#bbburst-shape-8" width="52.04000962344142" opacity="0.17410535929783744" transform="matrix(1.2474807168729405,-0.07932125207140087,0.07932125207140087,1.2474807168729405,608.8565108344584,155.20727036978985)" fill="none" stroke="#ffbd9b" filter="url(#bbburst-blur-3)"></use><use xlink:href="#bbburst-shape-8" width="28.378582782202468" opacity="0.3983995870716832" transform="matrix(0.8631411640043166,0.504962702584333,-0.504962702584333,0.8631411640043166,319.46157066475394,32.079235822053136)" fill="none" stroke="#00a19d" filter="url(#bbburst-blur-2)"></use><use xlink:href="#bbburst-shape-8" width="35.98033194409484" opacity="0.28767520524032764" transform="matrix(1.1643368650696697,-0.45477430076878106,0.45477430076878106,1.1643368650696697,-66.8736371825841,-239.33528016892248)" fill="none" stroke="#ffa6d5" filter="url(#bbburst-blur-3)"></use><use xlink:href="#bbburst-shape-4" width="42.768005500791055" opacity="0.3568293038299265" transform="matrix(0.991763334568132,-0.12808391080186213,0.12808391080186213,0.991763334568132,482.64697090043694,-238.29848025407023)" fill="#ffa6d5" filter="url(#bbburst-blur-2)"></use><use xlink:href="#bbburst-shape-4" width="27.013726782494743" opacity="0.48054572607100876" transform="matrix(0.9897616740058611,-0.14272991511633265,0.14272991511633265,0.9897616740058611,239.21343224208272,221.64361593831524)" fill="#ffa6d5" filter="url(#bbburst-blur-2)"></use><use xlink:href="#bbburst-shape-9" width="17.318737462780906" opacity="0.6730293945822752" transform="matrix(0.9094994111748098,0.41570520934031396,-0.41570520934031396,0.9094994111748098,411.49012915853586,25.3828682351691)" fill="none" stroke="#ffa6d5" filter="url(#bbburst-blur-1)"></use><use xlink:href="#bbburst-shape-9" width="12.676862998585726" opacity="0.8588829039863113" transform="matrix(0.7365942130891883,0.6763349504820222,-0.6763349504820222,0.7365942130891883,729.3345622827703,97.61309335430599)" fill="none" stroke="#ffa6d5"></use><use xlink:href="#bbburst-shape-1" width="21.541561296400264" opacity="0.7455935161982057" transform="matrix(0.9997347124244644,0.02303268923885012,-0.02303268923885012,0.9997347124244644,418.15368360804916,112.65938947150175)" fill="#ffbd9b" filter="url(#bbburst-blur-1)"></use><use xlink:href="#bbburst-shape-1" width="37.4082641502368" opacity="0.12778725982518802" transform="matrix(1.0361906781475774,-0.6991486812689156,0.6991486812689156,1.0361906781475774,-259.6878609020282,-156.14630171940624)" fill="#ffa6d5" filter="url(#bbburst-blur-3)"></use><use xlink:href="#bbburst-shape-4" width="23.470919359665896" opacity="0.6372709146491147" transform="matrix(0.983800619572991,-0.17926611762349032,0.17926611762349032,0.983800619572991,169.20424107926843,-61.202869309313996)" fill="#2c2891" filter="url(#bbburst-blur-1)"></use><use xlink:href="#bbburst-shape-10" width="32.458984507945395" opacity="0.374931256582558" transform="matrix(0.9817362068339417,0.1902472606670171,-0.1902472606670171,0.9817362068339417,647.9016751737347,213.67961724364955)" fill="none" stroke="#2c2891" filter="url(#bbburst-blur-2)"></use><use xlink:href="#bbburst-shape-4" width="43.24342699136389" opacity="-0.07035336619696664" transform="matrix(1.431172002416316,-1.0070981578275637,1.0070981578275637,1.431172002416316,299.68641684527364,-498.22828134765734)" fill="#ffa6d5" filter="url(#bbburst-blur-4)"></use><use xlink:href="#bbburst-shape-8" width="22.84228736195262" opacity="0.6254450374400162" transform="matrix(0.9879212919548895,-0.15495651293889529,0.15495651293889529,0.9879212919548895,472.84743707059283,-77.4221456035666)" fill="none" stroke="#ffbd9b" filter="url(#bbburst-blur-1)"></use><use xlink:href="#bbburst-shape-8" width="29.500376113118627" opacity="0.6244764853543552" transform="matrix(0.9992311223407211,0.0392066849619157,-0.0392066849619157,0.9992311223407211,369.2626932294067,165.71850117877165)" fill="none" stroke="#ffbd9b" filter="url(#bbburst-blur-1)"></use><use xlink:href="#bbburst-shape-9" width="27.19416068425245" opacity="0.6107839389267253" transform="matrix(0.7842350353940115,-0.6204638662005657,0.6204638662005657,0.7842350353940115,181.2781878006395,265.0605530584927)" fill="none" stroke="#ffbd9b" filter="url(#bbburst-blur-1)"></use><use xlink:href="#bbburst-shape-4" width="33.22144242857387" opacity="0.5527657656651617" transform="matrix(0.9779516520534811,0.20883143021553768,-0.20883143021553768,0.9779516520534811,630.2505742313189,123.4685385658351)" fill="#2c2891" filter="url(#bbburst-blur-2)"></use><use xlink:href="#bbburst-shape-10" width="17.379869289237096" opacity="0.7563579489698903" transform="matrix(0.9477387623268361,0.3190473920645597,-0.3190473920645597,0.9477387623268361,413.7087198564679,-11.084569319206537)" fill="none" stroke="#00a19d" filter="url(#bbburst-blur-1)"></use><use xlink:href="#bbburst-shape-8" width="19.960909278663664" opacity="0.6418846574068985" transform="matrix(0.9415087067888666,-0.3369886571396077,0.3369886571396077,0.9415087067888666,282.42062371244396,-132.17947096732715)" fill="none" stroke="#00a19d" filter="url(#bbburst-blur-1)"></use><use xlink:href="#bbburst-shape-10" width="30.871325612898104" opacity="0.2240402204006542" transform="matrix(1.2214987751949038,-0.26540674859044183,0.26540674859044183,1.2214987751949038,-71.49931402497569,-41.164207906872264)" fill="none" stroke="#ffa6d5" filter="url(#bbburst-blur-3)"></use><use xlink:href="#bbburst-shape-8" width="31.448075733655486" opacity="0.05397468864161936" transform="matrix(1.6908896436122938,0.45099025834788287,-0.45099025834788287,1.6908896436122938,319.22019609262605,-638.6915729184552)" fill="none" stroke="#ffa6d5" filter="url(#bbburst-blur-4)"></use><use xlink:href="#bbburst-shape-10" width="31.14871292444027" opacity="0.20008477818045234" transform="matrix(0.935830514879974,0.8286864590540155,-0.8286864590540155,0.935830514879974,1073.7854457688222,59.71948564097352)" fill="none" stroke="#00a19d" filter="url(#bbburst-blur-3)"></use><use xlink:href="#bbburst-shape-10" width="42.53759823222323" opacity="0.38343550556312267" transform="matrix(0.9801038041769785,-0.19848559906908836,0.19848559906908836,0.9801038041769785,35.105836868243856,95.47973638657612)" fill="none" stroke="#ffbd9b" filter="url(#bbburst-blur-2)"></use><use xlink:href="#bbburst-shape-4" width="10.456298202925055" opacity="0.8317695022912295" transform="matrix(0.855136128110975,0.5184035131047727,-0.5184035131047727,0.855136128110975,534.4324441957426,87.57302239686203)" fill="#ffbd9b"></use><use xlink:href="#bbburst-shape-8" width="35.84266559405808" opacity="0.16696866011554445" transform="matrix(0.913392442761745,-0.8533547008751591,0.8533547008751591,0.913392442761745,-228.0579146297786,309.6201358556522)" fill="none" stroke="#00a19d" filter="url(#bbburst-blur-3)"></use><use xlink:href="#bbburst-shape-4" width="18.07045106188541" opacity="0.6549302344243291" transform="matrix(0.9672950300000656,0.253653947213861,-0.253653947213861,0.9672950300000656,369.2479434067144,104.97366744780436)" fill="#2c2891" filter="url(#bbburst-blur-1)"></use><use xlink:href="#bbburst-shape-4" width="22.448271544288776" opacity="0.653402486028795" transform="matrix(0.9890372425864111,-0.1476662885599437,0.1476662885599437,0.9890372425864111,180.63594337667084,51.514053420556195)" fill="#00a19d" filter="url(#bbburst-blur-1)"></use><use xlink:href="#bbburst-shape-4" width="42.43703432130927" opacity="0.17321115299638778" transform="matrix(0.9282292398948955,0.8371920199118865,-0.8371920199118865,0.9282292398948955,366.5518265823574,140.99934811389005)" fill="#00a19d" filter="url(#bbburst-blur-3)"></use><use xlink:href="#bbburst-shape-8" width="13.797714545222384" opacity="0.8232799580204724" transform="matrix(0.7852264608047425,0.6192086928104759,-0.6192086928104759,0.7852264608047425,682.4842318824742,13.033003779683952)" fill="none" stroke="#ffbd9b"></use><use xlink:href="#bbburst-shape-8" width="9.739756352555005" opacity="0.9535413959806435" transform="matrix(0.7625493879698435,-0.6469300046425557,0.6469300046425557,0.7625493879698435,118.93269763008834,107.71163340187991)" fill="none" stroke="#00a19d"></use><use xlink:href="#bbburst-shape-8" width="16.393191467746174" opacity="0.8957055045357438" transform="matrix(0.9498507094544109,-0.3127037411815731,0.3127037411815731,0.9498507094544109,305.73851854530096,49.31125491282887)" fill="none" stroke="#00a19d"></use><use xlink:href="#bbburst-shape-8" width="15.880289274778931" opacity="0.8592570513475862" transform="matrix(0.9734227767166396,-0.2290154967884649,0.2290154967884649,0.9734227767166396,258.13760431736614,59.382077066648264)" fill="none" stroke="#2c2891"></use><use xlink:href="#bbburst-shape-1" width="16.997035464479648" opacity="0.7607245236617587" transform="matrix(0.9737937194808629,0.2274330492686285,-0.2274330492686285,0.9737937194808629,379.3930534501072,38.95053556618916)" fill="#2c2891" filter="url(#bbburst-blur-1)"></use><use xlink:href="#bbburst-shape-10" width="40.2016153988382" opacity="0.3001443192104687" transform="matrix(1.048098660890278,0.6811675249452267,-0.6811675249452267,1.048098660890278,477.831581569043,229.85799458927477)" fill="none" stroke="#00a19d" filter="url(#bbburst-blur-3)"></use><use xlink:href="#bbburst-shape-9" width="23.291570927289246" opacity="0.5311378018413645" transform="matrix(0.9870639305368426,-0.16032715625607263,0.16032715625607263,0.9870639305368426,115.27717779913053,35.25874022326616)" fill="none" stroke="#ff5c58" filter="url(#bbburst-blur-2)"></use><use xlink:href="#bbburst-shape-8" width="32.51885868209359" opacity="0.30781803867789126" transform="matrix(1.1410999913125723,0.510285028024973,-0.510285028024973,1.1410999913125723,864.6124368204837,73.64981275769503)" fill="none" stroke="#2c2891" filter="url(#bbburst-blur-3)"></use><use xlink:href="#bbburst-shape-10" width="12.326026141409704" opacity="0.9002854360990131" transform="matrix(0.8427548693741497,0.5382975293888687,-0.5382975293888687,0.8427548693741497,566.2775826651127,69.11207171673976)" fill="none" stroke="#ffa6d5"></use><use xlink:href="#bbburst-shape-4" width="31.210137580618138" opacity="0.4581605802074258" transform="matrix(0.9208969951234247,-0.3898060086410252,0.3898060086410252,0.9208969951234247,10.909877705614122,-69.83687800957722)" fill="#ff5c58" filter="url(#bbburst-blur-2)"></use><use xlink:href="#bbburst-shape-10" width="54.45426048347887" opacity="-0.07978554812617089" transform="matrix(1.498264242623982,-0.9042700145832466,0.9042700145832466,1.498264242623982,-345.0490959496108,169.9355616769859)" fill="none" stroke="#ffa6d5" filter="url(#bbburst-blur-4)"></use><use xlink:href="#bbburst-shape-10" width="12.705396168719215" opacity="0.8196089294395644" transform="matrix(0.9428402137966624,0.3332451518745081,-0.3332451518745081,0.9428402137966624,518.2168978978804,-59.9183459214633)" fill="none" stroke="#00a19d"></use><use xlink:href="#bbburst-shape-8" width="26.11944896653972" opacity="0.541763726271133" transform="matrix(0.9904873089485473,0.1376041089933912,-0.1376041089933912,0.9904873089485473,423.5809125194407,-203.36448834356457)" fill="none" stroke="#ffa6d5" filter="url(#bbburst-blur-2)"></use><use xlink:href="#bbburst-shape-10" width="31.470609306823658" opacity="0.18638266329601438" transform="matrix(1.2479370008088637,0.07178608508741767,-0.07178608508741767,1.2479370008088637,763.6395533405172,-191.60338486914395)" fill="none" stroke="#ffa6d5" filter="url(#bbburst-blur-3)"></use><use xlink:href="#bbburst-shape-4" width="37.92953102420907" opacity="0.40811391652282913" transform="matrix(0.8858654890405984,-0.4639421680844084,0.4639421680844084,0.8858654890405984,284.8735755648147,306.14089109058875)" fill="#2c2891" filter="url(#bbburst-blur-2)"></use><use xlink:href="#bbburst-shape-1" width="11.424277145457262" opacity="0.8697787179309109" transform="matrix(0.8733083563929775,0.48716785059586615,-0.48716785059586615,0.8733083563929775,560.7311484281289,-2.9337001050719778)" fill="#ffa6d5"></use><use xlink:href="#bbburst-shape-10" width="36.993097845227446" opacity="0.4432340265812611" transform="matrix(0.8592596177950989,0.5115397435455241,-0.5115397435455241,0.8592596177950989,782.2993682782384,-112.22737861801266)" fill="none" stroke="#ff5c58" filter="url(#bbburst-blur-2)"></use><use xlink:href="#bbburst-shape-1" width="22.250769937875152" opacity="0.7613131412528424" transform="matrix(0.996333569578529,-0.0855535980009404,0.0855535980009404,0.996333569578529,281.70853308268784,81.24722556427741)" fill="#00a19d" filter="url(#bbburst-blur-1)"></use><use xlink:href="#bbburst-shape-8" width="10.910889323930764" opacity="0.9524120757653474" transform="matrix(0.9472773778618463,-0.32041468348249097,0.32041468348249097,0.9472773778618463,275.21189260090307,42.472648260165954)" fill="none" stroke="#2c2891"></use><use xlink:href="#bbburst-shape-4" width="46.7265728640123" opacity="-0.09363836111988055" transform="matrix(1.4247219226634003,-1.0162024616592427,1.0162024616592427,1.4247219226634003,-386.23441178491595,-495.5570856124419)" fill="#ffa6d5" filter="url(#bbburst-blur-4)"></use><use xlink:href="#bbburst-shape-4" width="22.050050452466884" opacity="0.6826016078175448" transform="matrix(0.8882253757535669,0.4594079688767218,-0.4594079688767218,0.8882253757535669,705.8487077495399,94.48867152729707)" fill="#00a19d" filter="url(#bbburst-blur-1)"></use><use xlink:href="#bbburst-shape-10" width="39.01442683832054" opacity="0.04121031318679935" transform="matrix(1.7370453168256677,0.2125407426683545,-0.2125407426683545,1.7370453168256677,695.2234589880743,56.806506084642365)" fill="none" stroke="#ffbd9b" filter="url(#bbburst-blur-4)"></use><use xlink:href="#bbburst-shape-9" width="37.61578490388755" opacity="0.47045802914704715" transform="matrix(0.9720933972754664,0.23459417506289953,-0.23459417506289953,0.9720933972754664,703.7606494465398,-62.293913584451445)" fill="none" stroke="#ff5c58" filter="url(#bbburst-blur-2)"></use><use xlink:href="#bbburst-shape-4" width="18.40128892001004" opacity="0.7999220999714789" transform="matrix(0.9927475225782333,0.12021795379551292,-0.12021795379551292,0.9927475225782333,516.576832564077,47.42480785397146)" fill="#ffbd9b"></use><use xlink:href="#bbburst-shape-8" width="16.11130049430643" opacity="0.8259763586273782" transform="matrix(0.8676419696216233,-0.4971895137179686,0.4971895137179686,0.8676419696216233,172.9261668117568,132.33242090112344)" fill="none" stroke="#00a19d"></use><use xlink:href="#bbburst-shape-10" width="24.222492693780435" opacity="0.6571737478804561" transform="matrix(0.8810077314180284,-0.4731018676581812,0.4731018676581812,0.8810077314180284,352.47566800165987,29.282204267307975)" fill="none" stroke="#2c2891" filter="url(#bbburst-blur-1)"></use><use xlink:href="#bbburst-shape-4" width="38.16351939894676" opacity="0.10293308333905749" transform="matrix(1.6149026822543655,-0.6742323982483011,0.6742323982483011,1.6149026822543655,458.8852838678303,-49.162632700258655)" fill="#ff5c58" filter="url(#bbburst-blur-4)"></use><use xlink:href="#bbburst-shape-8" width="25.321414794383852" opacity="0.5016123057766833" transform="matrix(0.8826334693059463,0.47006186705682595,-0.47006186705682595,0.8826334693059463,487.87070254164644,-164.8729124161407)" fill="none" stroke="#00a19d" filter="url(#bbburst-blur-2)"></use><use xlink:href="#bbburst-shape-9" width="32.52272667061713" opacity="0.16372335887556155" transform="matrix(0.9893936540861082,-0.763937299295,0.763937299295,0.9893936540861082,-35.60844045494258,-342.26451565977953)" fill="none" stroke="#ff5c58" filter="url(#bbburst-blur-3)"></use><use xlink:href="#bbburst-shape-4" width="25.29776083440521" opacity="0.7698695665474498" transform="matrix(0.9164016186099614,0.4002600072565868,-0.4002600072565868,0.9164016186099614,638.9697302221072,-22.00315231569664)" fill="#2c2891" filter="url(#bbburst-blur-1)"></use><use xlink:href="#bbburst-shape-8" width="20.003333768037088" opacity="0.7654043902502243" transform="matrix(0.833026007907809,0.553233829541523,-0.553233829541523,0.833026007907809,718.4717175332487,64.76142468533499)" fill="none" stroke="#00a19d" filter="url(#bbburst-blur-1)"></use><use xlink:href="#bbburst-shape-1" width="32.5851189314113" opacity="0.3233676520061729" transform="matrix(1.1645601572070947,-0.45420220193850525,0.45420220193850525,1.1645601572070947,111.99267554419481,233.3045743597545)" fill="#ffa6d5" filter="url(#bbburst-blur-3)"></use><use xlink:href="#bbburst-shape-4" width="17.39350141767553" opacity="0.7722775423432098" transform="matrix(0.9102268398073392,-0.4141100096524406,0.4141100096524406,0.9102268398073392,174.32200455611004,-48.702982687586996)" fill="#ffa6d5" filter="url(#bbburst-blur-1)"></use><use xlink:href="#bbburst-shape-9" width="26.85448292215519" opacity="0.1636467929013985" transform="matrix(1.240817420955145,-0.15123533930342686,0.15123533930342686,1.240817420955145,236.07101227426884,271.7045038352571)" fill="none" stroke="#00a19d" filter="url(#bbburst-blur-3)"></use><use xlink:href="#bbburst-shape-4" width="14.524707729963865" opacity="0.8766951349736183" transform="matrix(0.8563979949967848,0.5163162540202342,-0.5163162540202342,0.8563979949967848,644.4542978178304,20.09817028101901)" fill="#ffbd9b"></use><use xlink:href="#bbburst-shape-9" width="20.35642452624758" opacity="0.6950346934291417" transform="matrix(0.9994687969835828,0.03259024173260507,-0.03259024173260507,0.9994687969835828,374.82586163227256,-134.59523308436474)" fill="none" stroke="#ffa6d5" filter="url(#bbburst-blur-1)"></use><use xlink:href="#bbburst-shape-4" width="25.64849232827234" opacity="0.5767694968762783" transform="matrix(0.9602700473246839,0.2790724569194339,-0.2790724569194339,0.9602700473246839,624.3235359162759,-131.34359538185407)" fill="#ffa6d5" filter="url(#bbburst-blur-1)"></use><use xlink:href="#bbburst-shape-1" width="41.72655111372753" opacity="0.060081819259445" transform="matrix(1.465069252730506,-0.9571165470848764,0.9571165470848764,1.465069252730506,-351.71380112515567,-419.78232028151064)" fill="#ff5c58" filter="url(#bbburst-blur-4)"></use><use xlink:href="#bbburst-shape-1" width="12.383429805438775" opacity="0.8661473031840402" transform="matrix(0.8412631570942866,0.5406258415168052,-0.5406258415168052,0.8412631570942866,622.1682955594174,119.35621819621053)" fill="#00a19d"></use><use xlink:href="#bbburst-shape-4" width="31.387402517351244" opacity="0.07770316594168869" transform="matrix(1.5037885206249966,0.8950531186675371,-0.8950531186675371,1.5037885206249966,517.8005350210669,138.51376532693644)" fill="#2c2891" filter="url(#bbburst-blur-4)"></use><use xlink:href="#bbburst-shape-8" width="20.884771900737938" opacity="0.7564367503859654" transform="matrix(0.7852914188758302,0.6191263097623823,-0.6191263097623823,0.7852914188758302,659.6080104386189,-28.315577562503393)" fill="none" stroke="#ff5c58" filter="url(#bbburst-blur-1)"></use><use xlink:href="#bbburst-shape-4" width="24.234003025841055" opacity="0.7097430471243182" transform="matrix(0.7163888921183921,0.6977011933839463,-0.6977011933839463,0.7163888921183921,744.4591536099483,-2.5736270703480386)" fill="#ffbd9b" filter="url(#bbburst-blur-1)"></use><use xlink:href="#bbburst-shape-8" width="27.28787700274966" opacity="0.6970209928695167" transform="matrix(0.8893987662196702,-0.4571321850919365,0.4571321850919365,0.8893987662196702,288.90620862227166,157.95103954520943)" fill="none" stroke="#ffa6d5" filter="url(#bbburst-blur-1)"></use><use xlink:href="#bbburst-shape-9" width="28.159178887364774" opacity="0.3375365323403212" transform="matrix(0.9321791990312939,-0.36199715591890425,0.36199715591890425,0.9321791990312939,-1.9997485897522154,203.30546583244598)" fill="none" stroke="#ff5c58" filter="url(#bbburst-blur-2)"></use><use xlink:href="#bbburst-shape-4" width="27.458662145275422" opacity="0.1907877431233016" transform="matrix(1.0691455705060273,-0.6476324181720227,0.6476324181720227,1.0691455705060273,134.26765573972335,-382.7979691285427)" fill="#ffbd9b" filter="url(#bbburst-blur-3)"></use><use xlink:href="#bbburst-shape-8" width="13.766100612954666" opacity="0.9451175438741002" transform="matrix(0.7959559515574545,-0.6053545433712935,0.6053545433712935,0.7959559515574545,175.81361282872246,77.98731724035497)" fill="none" stroke="#2c2891"></use><use xlink:href="#bbburst-shape-9" width="38.463201546413345" opacity="0.4411689059218451" transform="matrix(0.9985304344715666,0.054193832066245305,-0.054193832066245305,0.9985304344715666,455.46622735124515,-246.54353640461656)" fill="none" stroke="#ff5c58" filter="url(#bbburst-blur-2)"></use><use xlink:href="#bbburst-shape-8" width="13.860179153506179" opacity="0.8133531070844878" transform="matrix(0.9916928253662924,-0.12862869087812448,0.12862869087812448,0.9916928253662924,386.56598574989954,75.20296705820124)" fill="none" stroke="#00a19d"></use><use xlink:href="#bbburst-shape-8" width="30.67284121355596" opacity="0.4859716276822146" transform="matrix(0.715550227357107,0.6985612873107072,-0.6985612873107072,0.715550227357107,513.0978605263588,274.4465922584238)" fill="none" stroke="#2c2891" filter="url(#bbburst-blur-2)"></use><use xlink:href="#bbburst-shape-1" width="28.022040711490998" opacity="0.5255205306803339" transform="matrix(0.823211996492016,0.5677341004657277,-0.5677341004657277,0.823211996492016,427.6317601531463,164.1797674509694)" fill="#ffbd9b" filter="url(#bbburst-blur-2)"></use><use xlink:href="#bbburst-shape-8" width="36.45159718159791" opacity="0.224170610369136" transform="matrix(1.1780555310703738,0.4179535449239541,-0.4179535449239541,1.1780555310703738,324.836420677809,-349.2130200742377)" fill="none" stroke="#ffa6d5" filter="url(#bbburst-blur-3)"></use><use xlink:href="#bbburst-shape-10" width="31.278638338620887" opacity="0.5595453350474293" transform="matrix(0.8976365927919686,-0.44073636936475485,0.44073636936475485,0.8976365927919686,406.91485060051855,67.2898061912062)" fill="none" stroke="#00a19d" filter="url(#bbburst-blur-1)"></use><use xlink:href="#bbburst-shape-8" width="30.795011589963657" opacity="0.5445700345613218" transform="matrix(0.7573393540716175,0.6530215178494391,-0.6530215178494391,0.7573393540716175,760.8783502960541,259.0769854493613)" fill="none" stroke="#ffa6d5" filter="url(#bbburst-blur-2)"></use><use xlink:href="#bbburst-shape-4" width="27.774993436712855" opacity="0.41989632424727685" transform="matrix(0.9675616769446885,-0.25263491704034524,0.25263491704034524,0.9675616769446885,112.08717010520814,-178.6020859041798)" fill="#00a19d" filter="url(#bbburst-blur-2)"></use><use xlink:href="#bbburst-shape-8" width="14.223041225983748" opacity="0.9021019735691798" transform="matrix(0.7317062339598152,-0.6816201194098838,0.6816201194098838,0.7317062339598152,128.75503277480078,68.60893563036115)" fill="none" stroke="#ff5c58"></use><use xlink:href="#bbburst-shape-10" width="25.84119879088096" opacity="0.5466062718228533" transform="matrix(0.9106149325340647,0.4132559069704641,-0.4132559069704641,0.9106149325340647,639.5368321564115,-154.60186925993955)" fill="none" stroke="#ff5c58" filter="url(#bbburst-blur-2)"></use><use xlink:href="#bbburst-shape-10" width="39.06700456397695" opacity="0.23667117322445452" transform="matrix(1.0485963407406143,0.6804011421105887,-0.6804011421105887,1.0485963407406143,744.5394117428431,-363.4368169128734)" fill="none" stroke="#2c2891" filter="url(#bbburst-blur-3)"></use></svg>