<svg xmlns="http://www.w3.org/2000/svg" version="1.1" xmlns:xlink="http://www.w3.org/1999/xlink" xmlns:svgjs="http://svgjs.com/svgjs" width="1920" height="1080" preserveAspectRatio="none" viewBox="0 0 1920 1080"><g mask="url(&quot;#SvgjsMask1001&quot;)" fill="none"><path d="M -772.0594876171332,475 C -644.06,503.2 -388.06,622 -132.05948761713316,616 C 123.94,610 251.94,408 507.9405123828668,445 C 763.94,482 891.94,855.6 1147.940512382867,801 C 1403.94,746.4 1633.53,175.4 1787.940512382867,172 C 1942.35,168.6 1893.59,661.6 1920,784" stroke="rgba(140, 148, 233, 1)" stroke-width="2"></path><path d="M -919.2321222902798,466 C -791.23,552.2 -535.23,920.4 -279.2321222902798,897 C -23.23,873.6 104.77,369.4 360.7678777097202,349 C 616.77,328.6 744.77,837.4 1000.7678777097202,795 C 1256.77,752.6 1456.92,154.4 1640.7678777097203,137 C 1824.61,119.6 1864.15,593.8 1920,708" stroke="rgba(140, 148, 233, 1)" stroke-width="2"></path><path d="M -1274.286255937218,403 C -1146.29,464.2 -890.29,743 -634.2862559372178,709 C -378.29,675 -250.29,259.4 5.713744062782212,233 C 261.71,206.6 389.71,543 645.7137440627822,577 C 901.71,611 1030.86,400.6 1285.713744062782,403 C 1540.57,405.4 1793.14,551.8 1920,589" stroke="rgba(140, 148, 233, 1)" stroke-width="2"></path><path d="M -720.975525311358,171 C -592.98,305 -336.98,806.8 -80.97552531135797,841 C 175.02,875.2 303.02,354.4 559.024474688642,342 C 815.02,329.6 943.02,798.8 1199.024474688642,779 C 1455.02,759.2 1694.83,280.2 1839.024474688642,243 C 1983.22,205.8 1903.8,523 1920,593" stroke="rgba(140, 148, 233, 1)" stroke-width="2"></path></g><defs><mask id="SvgjsMask1001"><rect width="1920" height="1080" fill="#ffffff"></rect></mask></defs></svg>