<svg xmlns="http://www.w3.org/2000/svg" version="1.1" xmlns:xlink="http://www.w3.org/1999/xlink" xmlns:svgjs="http://svgjs.dev/svgjs" viewBox="0 0 1422 800" opacity="0.31"><g stroke-width="1" stroke="hsl(231, 100%, 64%)" fill="none" stroke-linecap="butt"><line x1="222" y1="0" x2="0" y2="222" opacity="0.38"></line><line x1="444" y1="0" x2="222" y2="222" opacity="0.96"></line><line x1="666" y1="0" x2="444" y2="222" opacity="0.89"></line><line x1="888" y1="0" x2="666" y2="222" opacity="0.57"></line><line x1="1110" y1="0" x2="888" y2="222" opacity="0.23"></line><line x1="1332" y1="0" x2="1110" y2="222" opacity="0.19"></line><line x1="1554" y1="0" x2="1332" y2="222" opacity="0.40"></line><line x1="222" y1="222" x2="0" y2="444" opacity="0.60"></line><line x1="444" y1="222" x2="222" y2="444" opacity="0.45"></line><line x1="666" y1="222" x2="444" y2="444" opacity="0.65"></line><line x1="666" y1="222" x2="888" y2="444" opacity="0.59"></line><line x1="1110" y1="222" x2="888" y2="444" opacity="0.89"></line><line x1="1332" y1="222" x2="1110" y2="444" opacity="0.93"></line><line x1="1554" y1="222" x2="1332" y2="444" opacity="0.11"></line><line x1="222" y1="444" x2="0" y2="666" opacity="0.11"></line><line x1="444" y1="444" x2="222" y2="666" opacity="0.37"></line><line x1="666" y1="444" x2="444" y2="666" opacity="0.14"></line><line x1="888" y1="444" x2="666" y2="666" opacity="0.29"></line><line x1="1110" y1="444" x2="888" y2="666" opacity="0.41"></line><line x1="1110" y1="444" x2="1332" y2="666" opacity="0.54"></line><line x1="1554" y1="444" x2="1332" y2="666" opacity="0.34"></line><line x1="222" y1="666" x2="0" y2="888" opacity="0.56"></line><line x1="222" y1="666" x2="444" y2="888" opacity="0.19"></line><line x1="666" y1="666" x2="444" y2="888" opacity="0.28"></line><line x1="888" y1="666" x2="666" y2="888" opacity="0.11"></line><line x1="1110" y1="666" x2="888" y2="888" opacity="0.62"></line><line x1="1332" y1="666" x2="1110" y2="888" opacity="0.36"></line><line x1="1554" y1="666" x2="1332" y2="888" opacity="0.75"></line></g></svg>