<svg xmlns="http://www.w3.org/2000/svg" version="1.1" xmlns:xlink="http://www.w3.org/1999/xlink" xmlns:svgjs="http://svgjs.dev/svgjs" viewBox="0 0 800 800"><defs><linearGradient x1="50%" y1="0%" x2="50%" y2="100%" id="ccchaos-grad"><stop stop-color="hsl(240, 75%, 49%)" stop-opacity="1" offset="0%"></stop><stop stop-color="hsl(280, 90%, 56%)" stop-opacity="1" offset="100%"></stop></linearGradient></defs><g stroke-width="1" stroke="url(#ccchaos-grad)" fill="none" stroke-linecap="round"><path d="M369.44 107.67C372 94.08 390.5 94.02 401.1 107.57Q408.36 116.14 416.03 124.82 424.02 133.62 432.23 142.53 440.54 151.56 448.82 160.7 456.98 169.96 464.87 179.33 472.41 188.81 479.46 198.39 485.96 208.07 491.81 217.84 496.97 227.69 501.38 237.62 505.04 247.62 507.94 257.67 510.1 267.77 511.58 277.9 512.44 288.05 512.76 298.21 512.66 308.36 512.24 318.5 511.64 328.61 510.99 338.67 510.43 348.68 510.1 358.62 510.14 368.47 510.66 378.23 511.78 387.87 513.61 397.4 516.22 406.79 519.66 416.04 523.97 425.14 529.16 434.08 535.21 442.86 542.09 451.45 549.72 459.87 558.01 468.11 566.87 476.15 576.15 484.02 585.72 491.69 595.43 499.18 605.12 506.48 614.62 513.61 623.79 520.56 632.48 527.35 640.54 533.98 647.86 540.46 659.42 552.97 668.08 565.16 671.87 576.94 673 588.59 670.7 600.19 667.18 611.88 663.32 623.89 660.31 636.23C659.7 645.48 646.06 663.26 633.17 670.78Q617.28 681.73 601.39 693.42 585.5 704.62 569.61 714.12 553.73 720.92 537.84 724.28 521.95 723.86 506.06 719.69 490.17 712.22 474.28 702.25 458.39 690.84 442.5 679.2 426.61 668.58 410.73 660.12 394.84 654.7 378.95 652.92 363.06 654.96 347.17 660.6 331.28 669.24 315.39 679.96 299.5 691.62 283.61 702.97 267.73 712.81 251.84 720.08 235.95 724.01 220.06 724.17 204.17 720.56 188.28 713.56 172.39 703.91 156.51 692.64 140.62 680.96 124.73 670.11C111.84 662.72 104.39 645.04 111.37 635.73Q121.78 623.32 132.61 611.24 143.82 599.52 155 587.9 165.67 576.25 175.79 564.48 184.63 552.34 192.57 539.87 198.98 526.75 204.57 513.16 209.13 498.73 213.35 483.75 217.64 467.84 222.34 451.38 225.08 442.83 228.13 434.1 231.54 425.21 235.33 416.15 239.54 406.94 244.17 397.58 249.22 388.1 254.69 378.48 260.54 368.76 266.73 358.93 273.23 349.02 279.95 339.04 286.85 328.99 293.83 318.9 300.83 308.78 307.76 298.63 314.52 288.48 321.06 278.33 327.28 268.2 333.12 258.1 338.52 248.04 343.44 238.04 347.84 228.1 351.71 218.23 355.03 208.44 357.82 198.74 360.11 189.14 361.95 179.64 363.39 170.25 364.5 160.96 365.37 151.79 366.09 142.74 366.76 133.8 367.47 124.98 368.89 111.97 369.44 107.67" stroke-dasharray="1 5" transform="rotate(0, 400, 400)" opacity="0.34"></path><path d="M373.86 117.94C375.52 104.89 393.46 104.83 404.6 117.84Q412.01 126.07 419.7 134.41 427.56 142.86 435.5 151.42 443.41 160.09 451.2 168.86 458.74 177.75 465.95 186.74 472.74 195.83 479.01 205.03 484.71 214.31 489.78 223.69 494.18 233.15 497.88 242.68 500.89 252.29 503.23 261.95 504.91 271.66 506.01 281.41 506.58 291.18 506.71 300.98 506.5 310.78 506.06 320.58 505.49 330.36 504.94 340.11 504.5 349.82 504.32 359.48 504.5 369.07 505.15 378.58 506.37 388.01 508.24 397.33 510.83 406.55 514.19 415.64 518.35 424.6 523.31 433.42 529.06 442.1 535.57 450.62 542.78 458.98 550.61 467.17 558.98 475.19 567.76 483.04 576.85 490.71 586.11 498.21 595.4 505.53 604.58 512.68 613.51 519.66 622.06 526.47 630.11 533.12 637.53 539.62 649.7 552.11 659.31 564.22 665.63 584.28 666.12 598.29 663.15 609.37 659.49 620.5 657.64 626.15 656.03 631.86C654.42 640.24 639.54 658.25 627.07 666.38Q611.7 677.35 596.34 688.35 580.97 698.29 565.61 706.19 550.24 711.28 534.88 713.05 519.51 711.32 504.15 706.27 488.78 698.39 473.42 688.47 458.05 677.47 442.69 666.5 427.32 656.62 411.96 648.81 396.59 643.85 381.23 642.23 365.86 644.09 350.5 649.27 335.13 657.24 319.76 667.23 304.4 678.24 289.03 689.2 273.67 699.01 258.3 706.71 242.94 711.55 227.57 713.04 212.21 711.03 196.84 705.73 181.47 697.66 166.11 687.61 150.74 676.58 135.38 665.65C122.91 657.61 116.15 639.69 123.24 631.26Q133.67 619.88 144.4 608.67 155.28 597.58 166 586.46 176.04 575.13 185.45 563.57 193.56 551.52 200.79 539.09 206.59 525.94 211.65 512.31 215.82 497.84 219.75 482.85 223.82 466.99 228.31 450.61 230.95 442.14 233.88 433.51 237.15 424.73 240.79 415.8 244.82 406.75 249.25 397.57 254.07 388.28 259.29 378.88 264.88 369.4 270.8 359.83 277.01 350.2 283.46 340.51 290.09 330.77 296.83 321 303.62 311.21 310.37 301.42 317.01 291.63 323.47 281.85 329.67 272.1 335.56 262.38 341.07 252.71 346.15 243.1 350.76 233.55 354.88 224.08 358.49 214.68 361.6 205.38 364.21 196.16 366.35 187.05 368.07 178.03 369.42 169.12 371.19 151.68 372.5 134.57 373.49 122.07 373.86 117.94" stroke-dasharray="2 1" transform="rotate(4.04, 400, 400)" opacity="0.46"></path><path d="M378.77 128.22C379.82 115.69 397.21 115.63 408.58 128.12Q423.5 144.01 438.61 160.31 453.19 177.03 466.52 194.15 478.03 211.66 487.26 229.53 493.99 247.73 498.24 266.2 500.28 284.88 500.6 303.7 499.88 322.58 498.92 341.44 498.58 360.19 499.66 378.74 502.87 397.02 508.72 414.93 517.46 432.41 529.06 449.37 543.24 465.77 559.42 481.57 576.82 496.72 594.52 511.22 611.54 525.06 626.95 538.26 639.96 550.87 649.98 562.92 656.71 574.48 660.18 585.64 660.71 596.49 658.95 607.14 655.78 617.71 652.22 628.3C650.05 636.01 634.38 653.96 622.32 662.28Q607.45 672.84 592.58 682.81 577.71 691.31 562.84 697.55 547.97 700.97 533.11 701.25 518.24 698.37 503.37 692.6 488.5 684.45 473.63 674.68 458.76 664.16 443.9 653.85 429.03 644.7 414.16 637.54 399.29 633.01 384.42 631.53 369.55 633.24 354.69 637.97 339.82 645.3 324.95 654.57 310.08 664.92 295.21 675.42 280.34 685.11 265.47 693.1 250.61 698.68 235.74 701.34 220.87 700.82 206 697.19 191.13 690.76 176.26 682.13 161.39 672.08 146.53 661.53C134.46 653.25 128.31 635.36 135.47 627.62Q145.8 617 156.35 606.43 166.84 595.79 176.96 584.96 186.42 573.83 194.98 562.32 202.49 550.34 208.88 537.81 214.21 524.68 218.66 510.93 222.51 496.52 226.13 481.46 229.92 465.76 234.3 449.44 239.64 432.55 246.26 415.15 254.33 397.31 263.9 379.09 274.87 360.57 286.96 341.86 299.8 323.02 312.91 304.15 325.75 285.33 337.8 266.64 348.57 248.15 357.72 229.92 365.01 212.01 370.42 194.45 374.09 177.28 376.36 160.52 378.25 136.19 378.77 128.22" stroke-dasharray="5 3" transform="rotate(8.08, 400, 400)" opacity="0.25"></path><path d="M383.96 138.49C384.69 126.49 401.54 126.43 412.86 138.39Q427.27 153.61 441.42 169.2 454.7 185.18 466.55 201.55 476.5 218.28 484.26 235.37 489.74 252.77 493.03 270.43 494.45 288.32 494.47 306.37 493.74 324.5 492.97 342.66 492.89 360.76 494.22 378.72 497.53 396.48 503.25 413.94 511.61 431.05 522.58 447.73 535.92 463.92 551.14 479.58 567.58 494.67 584.47 509.16 600.95 523.04 616.18 536.31 629.44 548.98 640.14 561.09 647.93 572.68 652.69 583.8 654.6 594.53 654.09 604.95 651.81 615.14 648.6 625.22C646.24 632.46 630.27 650.09 618.61 658.2Q604.22 667.94 589.83 676.64 575.44 683.57 561.05 688.14 546.66 689.98 532.27 688.92 517.88 685.07 503.49 678.74 489.11 670.45 474.72 660.91 460.33 650.92 445.94 641.3 431.55 632.86 417.16 626.3 402.77 622.19 388.38 620.85 373.99 622.4 359.6 626.72 345.21 633.43 330.82 641.99 316.44 651.67 302.05 661.66 287.66 671.13 273.27 679.29 258.88 685.45 244.49 689.1 230.1 689.94 215.71 687.89 201.32 683.12 186.93 676.04 172.54 667.24 158.15 657.44C146.49 649.34 140.88 631.75 148.01 624.5Q158.17 614.42 168.38 604.24 178.35 593.85 187.82 583.16 196.54 572.09 204.34 560.57 211.1 548.53 216.82 535.94 221.59 522.75 225.59 508.96 229.11 494.56 232.48 479.56 236.08 463.98 240.27 447.86 245.4 431.26 251.73 414.22 259.42 396.81 268.52 379.1 278.93 361.17 290.45 343.1 302.74 324.96 315.38 306.83 327.9 288.78 339.83 270.87 350.72 253.18 360.19 235.75 368.01 218.63 374.06 201.85 378.39 185.44 381.23 169.4 383.44 146.12 383.96 138.49" stroke-dasharray="5 9" transform="rotate(12.12, 400, 400)" opacity="0.68"></path><path d="M389.24 148.76C389.91 137.3 406.22 137.24 417.2 148.66Q430.79 163.2 443.78 178.09 455.65 193.34 465.96 208.95 474.4 224.91 480.8 241.2 485.15 257.79 487.61 274.65 488.52 291.73 488.34 308.99 487.65 326.36 487.08 343.78 487.27 361.19 488.81 378.53 492.19 395.71 497.78 412.67 505.76 429.35 516.11 445.68 528.62 461.6 542.9 477.07 558.4 492.04 574.44 506.48 590.29 520.37 605.24 533.68 618.6 546.43 629.81 558.62 638.49 570.29 644.44 581.45 647.7 592.18 648.51 602.51 647.35 612.53 644.85 622.3C642.64 629.24 626.86 646.27 615.58 653.83Q601.66 662.46 587.74 669.69 573.83 674.99 559.91 677.94 545.99 678.31 532.08 676.08 518.16 671.42 504.24 664.68 490.33 656.39 476.41 647.17 462.49 637.73 448.58 628.8 434.66 621.05 420.74 615.09 406.83 611.36 392.91 610.16 378.99 611.57 365.08 615.48 351.16 621.61 337.24 629.47 323.33 638.47 309.41 647.92 295.49 657.09 281.58 665.28 267.66 671.87 253.74 676.35 239.83 678.37 225.91 677.79 212 674.65 198.08 669.19 184.16 661.82 170.25 653.11C158.96 645.52 153.79 628.5 160.83 621.57Q170.69 611.82 180.43 601.83 189.78 591.54 198.53 580.87 206.49 569.77 213.51 558.18 219.54 546.07 224.62 533.4 228.86 520.17 232.45 506.37 235.66 492.02 238.81 477.13 242.23 461.74 246.25 445.88 251.16 429.62 257.2 413 264.51 396.08 273.13 378.94 283 361.64 293.93 344.24 305.65 326.83 317.78 309.46 329.94 292.19 341.67 275.09 352.58 258.2 362.31 241.58 370.58 225.25 377.23 209.24 382.25 193.59 385.74 178.29 388.59 156.05 389.24 148.76" stroke-dasharray="7 4" transform="rotate(16.16, 400, 400)" opacity="0.98"></path><path d="M394.39 159.04C395.22 148.09 410.99 148.04 421.38 158.94Q433.91 172.8 445.57 186.98 455.95 201.5 464.75 216.36 471.75 231.54 476.89 247.03 480.24 262.82 482.01 278.86 482.51 295.13 482.21 311.58 481.61 328.16 481.25 344.83 481.69 361.52 483.43 378.18 486.87 394.74 492.32 411.15 499.92 427.34 509.66 443.26 521.37 458.85 534.73 474.06 549.27 488.84 564.44 503.17 579.61 517 594.15 530.33 607.46 543.13 619.02 555.4 628.42 567.16 635.42 578.42 639.94 589.21 642.1 599.58 642.19 609.55 640.68 619.21C638.93 625.98 623.76 642.19 612.86 648.92Q599.41 656.19 585.97 661.86 572.53 665.53 559.09 666.95 545.65 666.01 532.2 662.78 518.76 657.49 505.32 650.5 491.88 642.31 478.44 633.48 464.99 624.64 451.55 616.39 438.11 609.32 424.67 603.91 411.23 600.55 397.79 599.47 384.34 600.75 370.9 604.29 357.46 609.85 344.02 617.04 330.58 625.36 317.14 634.22 303.69 643.02 290.25 651.14 276.81 658 263.37 663.13 249.93 666.18 236.49 666.92 223.04 665.31 209.6 661.46 196.16 655.65 182.72 648.26C171.82 641.47 166.99 625.26 173.83 618.5Q183.26 608.89 192.42 598.95 201.08 588.65 209.06 577.93 216.22 566.74 222.47 555.06 227.81 542.86 232.28 530.14 236.03 516.9 239.24 503.15 242.18 488.9 245.12 474.19 248.37 459.05 252.22 443.53 256.92 427.67 262.67 411.52 269.6 395.16 277.76 378.62 287.08 361.99 297.41 345.31 308.54 328.64 320.14 312.05 331.87 295.59 343.34 279.3 354.18 263.22 364.06 247.41 372.7 231.87 379.91 216.65 385.59 201.74 389.79 187.18 393.51 165.99 394.39 159.04" stroke-dasharray="4 3" transform="rotate(20.200000000000003, 400, 400)" opacity="0.76"></path><path d="M399.2 169.3C400.41 158.9 415.58 158.84 425.16 169.21Q436.44 182.39 446.67 195.87 455.55 209.66 462.88 223.76 468.56 238.17 472.58 252.86 475.07 267.84 476.26 283.06 476.47 298.51 476.11 314.14 475.63 329.93 475.5 345.81 476.18 361.75 478.09 377.7 481.56 393.6 486.85 409.4 494.08 425.05 503.22 440.49 514.16 455.67 526.62 470.55 540.21 485.08 554.49 499.22 568.92 512.94 582.97 526.22 596.09 539.02 607.82 551.35 617.76 563.19 625.64 574.56 631.3 585.46 634.76 595.91 636.18 605.95 635.84 615.61C634.76 622.36 620.56 637.53 610.05 643.22Q597.1 648.99 584.14 653.05 571.19 655.16 558.23 655.18 545.28 653.1 532.33 649.05 519.37 643.3 506.42 636.21 493.46 628.22 480.51 619.85 467.55 611.62 454.6 604.05 441.64 597.63 428.69 592.76 415.73 589.74 402.78 588.78 389.82 589.92 376.87 593.11 363.91 598.13 350.96 604.67 338.01 612.31 325.05 620.58 312.1 628.94 299.14 636.87 286.19 643.86 273.23 649.47 260.28 653.36 247.32 655.26 234.37 655.06 221.41 652.78 208.46 648.55 195.5 642.65C184.99 636.88 180.37 621.68 186.91 614.96Q195.79 605.35 204.27 595.37 212.17 584.99 219.34 574.16 225.7 562.87 231.21 551.11 235.87 538.86 239.79 526.13 243.09 512.94 245.96 499.29 248.65 485.22 251.41 470.76 254.51 455.94 258.19 440.81 262.67 425.42 268.14 409.82 274.7 394.05 282.38 378.17 291.16 362.24 300.9 346.3 311.42 330.41 322.45 314.62 333.7 298.97 344.84 283.5 355.54 268.24 365.48 253.23 374.39 238.49 382.06 224.04 388.36 209.9 393.27 196.06 398.01 175.92 399.2 169.3" stroke-dasharray="6 3" transform="rotate(24.24, 400, 400)" opacity="0.82"></path><path d="M403.48 179.58C405.19 169.69 419.76 169.64 428.37 179.49Q438.26 191.99 447.01 204.77 454.42 217.83 460.38 231.18 464.84 244.81 467.89 258.71 469.66 272.87 470.4 287.27 470.41 301.89 470.05 316.7 469.72 331.66 469.82 346.75 470.72 361.91 472.78 377.11 476.27 392.31 481.39 407.45 488.24 422.49 496.81 437.39 506.99 452.1 518.57 466.57 531.23 480.77 544.6 494.65 558.24 508.18 571.7 521.33 584.51 534.08 596.25 546.41 606.55 558.3 615.12 569.75 621.77 580.76 626.42 591.33 629.14 601.49 630.09 611.25C629.83 618.04 616.9 632.04 606.81 636.53Q594.36 640.74 581.91 643.24 569.46 643.9 557.01 642.67 544.56 639.64 532.11 634.97 519.67 628.93 507.22 621.86 494.77 614.17 482.32 606.3 469.87 598.7 457.42 591.81 444.97 586.01 432.52 581.64 420.08 578.95 407.63 578.09 395.18 579.12 382.73 581.97 370.28 586.48 357.83 592.39 345.38 599.37 332.93 607.01 320.48 614.89 308.03 622.53 295.59 629.52 283.14 635.46 270.69 639.99 258.24 642.86 245.79 643.91 233.34 643.08 220.89 640.42 208.44 636.07C198.35 631.48 193.84 617.44 199.98 610.68Q208.2 600.99 215.91 590.9 223 580.4 229.36 569.46 234.93 558.09 239.72 546.28 243.76 534.03 247.16 521.35 250.05 508.27 252.63 494.81 255.1 480.99 257.69 466.86 260.63 452.44 264.15 437.78 268.42 422.92 273.61 407.9 279.79 392.78 287.01 377.6 295.25 362.41 304.39 347.25 314.29 332.15 324.73 317.18 335.46 302.35 346.2 287.7 356.66 273.27 366.55 259.07 375.63 245.12 383.67 231.45 390.52 218.06 396.09 204.95 401.94 185.85 403.48 179.58" stroke-dasharray="5 5" transform="rotate(28.28, 400, 400)" opacity="0.85"></path><path d="M407.07 189.85C409.37 180.5 423.3 180.45 430.81 189.76Q439.25 201.59 446.54 213.66 452.55 226 457.25 238.59 460.65 251.45 462.86 264.56 464.05 277.91 464.45 291.49 464.35 305.27 464.04 319.25 463.89 333.38 464.21 347.64 465.32 362.01 467.51 376.43 470.99 390.89 475.93 405.33 482.4 419.72 490.41 434.01 499.86 448.18 510.58 462.17 522.32 475.95 534.78 489.49 547.59 502.75 560.39 515.7 572.77 528.31 584.36 540.56 594.84 552.44 603.9 563.92 611.35 575.01 617.06 585.69 621 595.97 623.25 605.86C623.9 612.74 612.45 625.46 602.78 628.7Q590.86 631.35 578.94 632.38 567.03 631.74 555.11 629.47 543.19 625.68 531.28 620.56 519.36 614.39 507.44 607.47 495.52 600.16 483.61 592.83 471.69 585.87 459.77 579.63 447.86 574.43 435.94 570.54 424.02 568.16 412.1 567.4 400.19 568.31 388.27 570.85 376.35 574.88 364.43 580.19 352.52 586.51 340.6 593.53 328.68 600.86 316.76 608.15 304.85 615.02 292.93 621.11 281.01 626.1 269.09 629.76 257.18 631.88 245.26 632.35 233.34 631.16 221.42 628.37C211.75 625.01 207.27 612.24 212.92 605.4Q220.38 595.58 227.28 585.37 233.53 574.76 239.08 563.75 243.89 552.34 248 540.54 251.46 528.36 254.39 515.82 256.93 502.93 259.24 489.74 261.51 476.25 263.96 462.52 266.76 448.57 270.12 434.44 274.18 420.18 279.08 405.81 284.89 391.39 291.66 376.94 299.35 362.52 307.89 348.15 317.17 333.87 326.99 319.72 337.16 305.72 347.44 291.91 357.58 278.3 367.33 264.91 376.45 251.76 384.74 238.86 392.03 226.22 398.21 213.84 405.14 195.78 407.07 189.85" stroke-dasharray="9 9" transform="rotate(32.32, 400, 400)" opacity="0.29"></path><path d="M409.82 200.13C412.74 191.3 426 191.25 432.35 200.05Q439.34 211.19 445.23 222.56 449.95 234.17 453.53 246.02 456.02 258.11 457.55 270.42 458.29 282.96 458.46 295.72 458.31 308.67 458.11 321.8 458.14 335.09 458.68 348.52 459.98 362.06 462.26 375.69 465.72 389.36 470.47 403.06 476.57 416.74 484.03 430.38 492.77 443.94 502.65 457.38 513.49 470.67 525.03 483.78 537 496.67 549.06 509.33 560.91 521.72 572.22 533.81 582.69 545.58 592.06 557.03 600.11 568.12 606.69 578.86 611.72 589.24 615.2 599.26C616.76 606.24 606.9 617.63 597.68 619.62Q586.33 620.8 574.97 620.51 563.61 618.76 552.26 615.64 540.9 611.29 529.54 605.91 518.19 599.74 506.83 593.07 495.47 586.21 484.12 579.46 472.76 573.14 461.4 567.54 450.05 562.91 438.69 559.47 427.34 557.37 415.98 556.71 404.62 557.52 393.27 559.76 381.91 563.33 370.55 568.07 359.2 573.76 347.84 580.14 336.49 586.91 325.13 593.77 313.77 600.4 302.42 606.5 291.06 611.79 279.7 616.02 268.35 619 256.99 620.6 245.64 620.74 234.28 619.42C225.06 617.31 220.51 605.86 225.6 598.93Q232.23 588.98 238.29 578.68 243.7 568.01 248.46 556.98 252.55 545.61 256.03 533.9 258.98 521.87 261.5 509.55 263.72 496.95 265.8 484.1 267.9 471.04 270.21 457.79 272.88 444.38 276.08 430.85 279.93 417.24 284.55 403.57 290 389.88 296.31 376.21 303.47 362.58 311.41 349.03 320.05 335.58 329.25 322.27 338.82 309.11 348.58 296.13 358.32 283.34 367.83 270.76 376.88 258.41 385.3 246.28 392.91 234.39 399.58 222.74 407.53 205.72 409.82 200.13" stroke-dasharray="5 2" transform="rotate(36.36, 400, 400)" opacity="0.24"></path><path d="M411.63 210.4C415.17 202.1 427.69 202.05 432.9 210.32Q438.5 220.79 443.09 231.46 446.67 242.35 449.28 253.45 451.02 264.77 452.02 276.3 452.43 288.03 452.46 299.96 452.33 312.07 452.26 324.36 452.49 336.81 453.23 349.39 454.69 362.1 457.06 374.89 460.46 387.76 465 400.68 470.74 413.61 477.66 426.54 485.71 439.42 494.79 452.24 504.74 464.97 515.38 477.57 526.46 490.01 537.75 502.28 548.98 514.34 559.87 526.17 570.17 537.76 579.64 549.07 588.08 560.09 595.33 570.81 601.27 581.22 605.84 591.31C608.29 598.37 600.04 608.43 591.31 609.25Q580.54 609.1 569.78 607.68 559.01 605.03 548.25 601.28 537.48 596.56 526.72 591.08 515.95 585.06 505.19 578.74 494.42 572.37 483.66 566.22 472.9 560.53 462.13 555.55 451.37 551.46 440.6 548.43 429.84 546.6 419.07 546.02 408.31 546.74 397.54 548.71 386.78 551.85 376.01 556.05 365.25 561.12 354.48 566.87 343.72 573.06 332.95 579.43 322.19 585.73 311.43 591.71 300.66 597.12 289.9 601.73 279.13 605.38 268.37 607.89 257.6 609.18 246.84 609.19C238.11 608.26 233.43 598.13 237.92 591.12Q243.7 581.1 248.9 570.76 253.5 560.1 257.5 549.14 260.93 537.89 263.85 526.37 266.33 514.59 268.49 502.58 270.43 490.36 272.32 477.96 274.28 465.4 276.46 452.7 279 439.91 282.04 427.04 285.69 414.13 290.02 401.21 295.11 388.29 300.97 375.42 307.6 362.61 314.96 349.9 322.96 337.29 331.51 324.82 340.46 312.51 349.65 300.36 358.92 288.4 368.09 276.63 376.96 265.06 385.37 253.7 393.16 242.56 400.2 231.63 409.01 215.65 411.63 210.4" stroke-dasharray="7 1" transform="rotate(40.400000000000006, 400, 400)" opacity="0.84"></path><path d="M412.46 220.67C416.53 212.9 428.3 212.86 432.4 220.59Q436.72 230.39 440.15 240.36 442.75 250.53 444.57 260.89 445.71 271.45 446.31 282.19 446.51 293.12 446.49 304.23 446.43 315.51 446.51 326.95 446.93 338.55 447.86 350.28 449.47 362.13 451.88 374.08 455.22 386.12 459.55 398.22 464.91 410.37 471.31 422.53 478.69 434.7 486.99 446.83 496.08 458.91 505.82 470.92 516.02 482.83 526.49 494.62 537.02 506.26 547.38 517.73 557.36 529.01 566.75 540.08 575.37 550.93 583.06 561.53 589.69 571.88 595.18 581.95C598.39 589.04 591.72 597.81 583.49 597.58Q573.35 596.3 563.21 593.95 553.07 590.63 542.93 586.45 532.79 581.56 522.65 576.13 512.51 570.36 502.36 564.46 492.22 558.63 482.08 553.09 471.94 548.03 461.8 543.63 451.66 540.05 441.52 537.42 431.38 535.82 421.23 535.33 411.09 535.95 400.95 537.67 390.81 540.41 380.67 544.1 370.53 548.58 360.39 553.71 350.24 559.29 340.1 565.14 329.96 571.04 319.82 576.78 309.68 582.15 299.54 586.97 289.4 591.06 279.25 594.27 269.11 596.5 258.97 597.66C250.74 597.78 245.93 588.94 249.78 581.9Q254.68 571.89 259.05 561.61 262.88 551.06 266.19 540.27 269.02 529.25 271.43 518.02 273.52 506.6 275.36 495 277.08 483.25 278.8 471.38 280.63 459.39 282.7 447.33 285.12 435.22 288.01 423.06 291.44 410.91 295.5 398.76 300.22 386.66 305.64 374.61 311.75 362.64 318.52 350.77 325.89 339.02 333.78 327.4 342.08 315.93 350.67 304.61 359.41 293.47 368.14 282.51 376.72 271.73 385 261.13 392.83 250.73 400.08 240.52 409.56 225.58 412.46 220.67" stroke-dasharray="8 11" transform="rotate(44.44, 400, 400)" opacity="0.14"></path><path d="M412.28 230.95C416.77 223.71 427.76 223.66 430.86 230.87Q434.03 240 436.48 249.28 438.27 258.73 439.46 268.36 440.16 278.15 440.49 288.11 440.57 298.24 440.57 308.53 440.62 318.98 440.87 329.58 441.48 340.32 442.58 351.19 444.3 362.18 446.74 373.28 449.98 384.47 454.09 395.73 459.08 407.05 464.97 418.42 471.71 429.81 479.26 441.2 487.51 452.58 496.37 463.92 505.68 475.21 515.31 486.42 525.07 497.54 534.8 508.54 544.32 519.42 553.46 530.14 562.06 540.69 569.96 551.06 577.05 561.23 583.23 571.19C587.07 578.21 581.88 585.79 574.18 584.68Q564.69 582.49 555.2 579.45 545.71 575.68 536.22 571.27 526.73 566.37 517.24 561.13 507.75 555.72 498.26 550.3 488.77 545.04 479.28 540.1 469.79 535.65 460.3 531.81 450.81 528.7 441.32 526.43 431.83 525.07 422.34 524.65 412.85 525.19 403.36 526.67 393.87 529.05 384.38 532.25 374.89 536.17 365.4 540.69 355.92 545.68 346.43 550.97 336.94 556.4 327.45 561.8 317.96 567 308.47 571.85 298.98 576.18 289.49 579.87 280 582.81 270.51 584.89C262.81 585.91 257.88 578.27 261.1 571.28Q265.16 561.38 268.74 551.26 271.85 540.94 274.53 530.44 276.84 519.76 278.82 508.93 280.56 497.96 282.15 486.87 283.68 475.69 285.26 464.42 286.98 453.1 288.94 441.73 291.24 430.35 293.97 418.97 297.19 407.6 300.97 396.27 305.34 385 310.33 373.8 315.93 362.69 322.12 351.68 328.86 340.78 336.09 330.01 343.72 319.38 351.67 308.9 359.81 298.58 368.04 288.41 376.22 278.41 384.24 268.58 391.96 258.92 399.27 249.43 409.18 235.53 412.28 230.95" stroke-dasharray="10 4" transform="rotate(48.48, 400, 400)" opacity="0.92"></path><path d="M411.12 241.22C415.91 234.5 426.09 234.46 428.31 241.15Q430.52 249.6 432.17 258.2 433.32 266.94 434.05 275.83 434.45 284.86 434.62 294.05 434.67 303.39 434.74 312.87 434.92 322.49 435.35 332.25 436.14 342.14 437.38 352.15 439.19 362.27 441.62 372.5 444.76 382.83 448.63 393.23 453.26 403.71 458.65 414.24 464.77 424.81 471.59 435.42 479.04 446.03 487.03 456.64 495.47 467.23 504.23 477.79 513.18 488.3 522.2 498.74 531.15 509.09 539.88 519.34 548.26 529.49 556.16 539.5 563.47 549.36 570.09 559.08C574.38 565.96 570.5 572.43 563.34 570.63Q545.72 564.29 528.1 555.83 510.48 546.14 492.85 536.26 475.23 527.25 457.61 520.06 439.98 515.47 422.36 513.95 404.74 515.68 387.11 520.47 369.49 527.8 351.87 536.91 334.24 546.8 316.62 556.44 299 564.79 281.37 570.96C274.22 572.68 269.19 566.15 271.8 559.3Q275.07 549.64 277.93 539.82 280.41 529.84 282.55 519.74 284.4 509.52 286.02 499.2 287.48 488.78 288.86 478.3 290.24 467.76 291.7 457.18 293.32 446.58 295.18 435.97 297.37 425.37 299.94 414.8 302.95 404.26 306.45 393.77 310.47 383.36 315.03 373.02 320.12 362.77 325.75 352.62 331.86 342.58 338.43 332.67 345.39 322.88 352.67 313.23 360.18 303.71 367.83 294.34 375.52 285.12 383.16 276.04 390.63 267.12 397.85 258.34 407.91 245.46 411.12 241.22" stroke-dasharray="7 8" transform="rotate(52.52, 400, 400)" opacity="0.63"></path><path d="M409.09 251.5C414.01 245.31 423.34 245.27 424.83 251.44Q427.32 267.12 428.42 283.32 428.75 300.03 429.02 317.25 429.96 334.98 432.28 353.17 436.54 371.79 443.17 390.77 452.34 410.05 464 429.55 477.82 449.18 493.28 468.83 509.65 488.42 526.11 507.84 541.81 526.98 555.91 545.75C560.47 552.4 557.68 557.89 551.1 555.61Q534.87 548.62 518.64 540.24 502.42 531.23 486.19 522.39 469.96 514.55 453.73 508.41 437.5 504.53 421.28 503.26 405.05 504.72 388.82 508.78 372.59 515.07 356.36 523.01 340.13 531.88 323.9 540.88 307.68 549.18 291.45 556.04C284.87 558.26 279.8 552.72 281.85 546.1Q286.63 527.4 290.24 508.31 293.05 488.94 295.5 469.38 298.12 449.74 301.42 430.12 305.9 410.61 311.92 391.3 319.74 372.28 329.41 353.62 340.83 335.37 353.7 317.59 367.56 300.3 381.84 283.52 395.9 267.26 409.09 251.5 409.09 251.5 409.09 251.5" stroke-dasharray="1 0" transform="rotate(56.56, 400, 400)" opacity="0.26"></path><path d="M406.28 261.78C411.17 256.11 419.66 256.08 420.59 261.72Q422.07 276.05 422.69 290.82 422.97 306.03 423.46 321.68 424.72 337.76 427.26 354.26 431.49 371.14 437.71 388.37 446.05 405.89 456.46 423.66 468.73 441.6 482.47 459.65 497.18 477.73 512.25 495.77 527.02 513.68 540.84 531.38C545.48 537.68 543.57 542.35 537.57 539.79Q522.77 532.61 507.96 524.63 493.16 516.46 478.36 508.72 463.56 502.01 448.75 496.85 433.95 493.62 419.15 492.58 404.34 493.8 389.54 497.19 374.74 502.49 359.93 509.3 345.13 517.09 330.32 525.27 315.52 533.21 300.72 540.31C294.71 542.81 289.69 538.11 291.25 531.83Q294.88 514.18 297.67 496.31 299.95 478.3 302.1 460.23 304.54 442.18 307.68 424.23 311.87 406.44 317.4 388.88 324.46 371.62 333.12 354.69 343.3 338.14 354.79 321.99 367.29 306.28 380.36 291.01 393.52 276.18 406.28 261.78 406.28 261.78 406.28 261.78" stroke-dasharray="2 8" transform="rotate(60.599999999999994, 400, 400)" opacity="0.51"></path><path d="M402.85 272.05C407.55 266.91 415.2 266.88 415.74 272Q416.56 284.99 416.96 298.34 417.32 312.06 418.08 326.16 419.63 340.62 422.33 355.44 426.47 370.6 432.26 386.07 439.77 401.83 448.99 417.83 459.77 434.03 471.84 450.38 484.86 466.83 498.4 483.32 511.98 499.79 525.11 516.19C529.63 522.06 528.4 526.02 522.98 523.39Q509.62 516.4 496.25 509.07 482.89 501.87 469.53 495.25 456.16 489.63 442.8 485.36 429.44 482.73 416.07 481.88 402.71 482.89 389.35 485.67 375.98 490.07 362.62 495.79 349.25 502.48 335.89 509.71 322.53 517.03 309.16 523.96C303.74 526.57 298.88 522.58 300.02 516.72Q302.71 500.35 304.86 483.9 306.74 467.41 308.68 450.96 310.97 434.6 313.94 418.38 317.83 402.35 322.88 386.56 329.21 371.05 336.87 355.84 345.84 340.97 355.97 326.45 367.06 312.3 378.8 298.52 390.86 285.1 402.85 272.05 402.85 272.05 402.85 272.05" stroke-dasharray="6 1" transform="rotate(64.64, 400, 400)" opacity="0.55"></path><path d="M398.98 282.34C403.35 277.72 410.17 277.69 410.46 282.29Q410.94 293.94 411.31 305.89 411.86 318.14 412.89 330.7 414.69 343.57 417.48 356.73 421.48 370.19 426.8 383.92 433.51 397.9 441.59 412.11 450.94 426.53 461.4 441.12 472.74 455.85 484.66 470.67 496.83 485.55 508.92 500.44C513.17 505.79 512.41 509.18 507.57 506.64Q495.65 500.17 483.73 493.7 471.81 487.54 459.89 482.02 447.97 477.42 436.05 473.98 424.13 471.87 412.21 471.2 400.29 472.01 388.37 474.25 376.45 477.81 364.53 482.51 352.61 488.11 340.69 494.31 328.77 500.8 316.85 507.25C312.01 509.78 307.4 506.37 308.22 501.02Q310.19 486.14 311.87 471.27 313.48 456.44 315.25 441.7 317.42 427.09 320.21 412.65 323.81 398.4 328.36 384.38 333.97 370.61 340.68 357.11 348.47 343.89 357.27 330.97 366.93 318.36 377.26 306.05 393.51 288.19 398.98 282.34" stroke-dasharray="1 10" transform="rotate(68.68, 400, 400)" opacity="0.32"></path><path d="M394.89 292.62C398.83 288.52 404.8 288.49 404.98 292.57Q405.37 302.9 405.85 313.46 406.64 324.26 407.93 335.3 409.91 346.6 412.73 358.14 416.51 369.91 421.35 381.92 427.26 394.15 434.25 406.58 442.25 419.21 451.17 432 460.85 444.94 471.11 458 481.75 471.16 492.52 484.4C496.39 489.18 495.89 492.09 491.64 489.78Q481.15 484.08 470.67 478.58 460.18 473.49 449.7 469.03 439.21 465.37 428.72 462.66 418.24 461.02 407.75 460.51 397.26 461.14 386.78 462.9 376.29 465.72 365.8 469.47 355.32 474.01 344.83 479.16 334.34 484.69 323.86 490.4C319.61 492.7 315.35 489.79 315.94 485Q317.4 471.77 318.76 458.6 320.18 445.52 321.84 432.56 323.9 419.74 326.5 407.09 329.78 394.62 333.84 382.35 338.75 370.3 344.54 358.48 351.2 346.89 358.7 335.55 366.96 324.45 375.84 313.6 390.05 297.81 394.89 292.62" stroke-dasharray="2 4" transform="rotate(72.72, 400, 400)" opacity="0.94"></path><path d="M390.79 302.91C394.18 299.33 399.35 299.3 399.51 302.87Q399.98 311.87 400.67 321.05 401.7 330.42 403.21 339.98 405.3 349.73 408.06 359.68 411.58 369.81 415.89 380.13 421.03 390.63 426.97 401.3 433.7 412.14 441.16 423.13 449.24 434.26 457.86 445.51 466.88 456.88 476.15 468.35C479.52 472.5 479.16 475.03 475.47 473.05Q466.4 468.29 457.33 463.82 448.26 459.78 439.19 456.31 430.12 453.5 421.05 451.44 411.98 450.2 402.91 449.82 393.84 450.31 384.77 451.65 375.7 453.8 366.63 456.7 357.55 460.25 348.48 464.35 339.41 468.86 330.34 473.65C326.65 475.64 322.86 473.11 323.28 468.95Q324.41 457.47 325.58 446.09 326.89 434.81 328.47 423.65 330.41 412.63 332.81 401.76 335.76 391.05 339.32 380.52 343.54 370.16 348.45 359.98 354.04 350 360.3 340.2 367.18 330.6 374.62 321.18 386.65 307.43 390.79 302.91" stroke-dasharray="2 8" transform="rotate(76.76, 400, 400)" opacity="0.50"></path><path d="M386.89 313.2C389.7 310.14 394.08 310.12 394.29 313.16Q395.86 328.67 398.75 344.73 403.49 361.36 410.44 378.56 419.76 396.32 431.37 414.6 444.96 433.37 460.01 452.56C462.83 456.06 462.5 458.26 459.39 456.67Q444.02 449.48 428.66 443.85 413.29 440.29 397.92 439.13 382.55 440.47 367.19 444.19 351.82 449.95 336.45 457.23C333.34 458.84 330.07 456.64 330.4 453.13Q332.42 433.9 335.15 415.08 339.14 396.73 344.8 378.9 352.42 361.62 362.09 344.92 373.68 328.78 386.89 313.2 386.89 313.2 386.89 313.2" stroke-dasharray="7 2" transform="rotate(80.80000000000001, 400, 400)" opacity="0.48"></path><path d="M383.41 323.49C385.61 320.94 389.22 320.92 389.51 323.45Q391.48 336.31 394.55 349.55 398.99 363.19 404.99 377.24 412.61 391.68 421.83 406.52 432.49 421.74 444.35 437.3C446.57 440.13 446.22 442.03 443.65 440.85Q431 435.63 418.34 431.67 405.69 429.22 393.03 428.43 380.38 429.37 367.72 431.95 355.07 436.03 342.41 441.35C339.85 442.55 337.17 440.65 337.45 437.81Q339.33 422.2 341.92 406.94 345.49 392.04 350.29 377.53 356.46 363.42 364.08 349.71 378.26 329.94 383.41 323.49" stroke-dasharray="9 8" transform="rotate(84.84, 400, 400)" opacity="0.25"></path><path d="M380.52 333.78C382.15 331.75 385 331.73 385.37 333.76Q387.59 343.99 390.62 354.46 394.58 365.2 399.54 376.19 405.52 387.45 412.52 398.97 420.49 410.74 429.3 422.77C430.98 424.97 430.57 426.56 428.55 425.77Q418.53 422.33 408.52 419.78 398.51 418.23 388.49 417.75 378.48 418.35 368.47 420.01 358.45 422.66 348.44 426.19C346.42 427 344.34 425.41 344.61 423.21Q346.42 411.14 348.79 399.31 351.87 387.74 355.77 376.43 360.57 365.38 366.3 354.59 376.74 338.92 380.52 333.78" stroke-dasharray="5 3" transform="rotate(88.88, 400, 400)" opacity="0.14"></path><path d="M378.41 344.08C379.49 342.56 381.62 342.55 382.02 344.06Q386.98 359.45 394.08 375.43 403.46 392 415.03 409.16C416.18 410.75 415.77 412.02 414.26 411.56Q399.39 408.17 384.52 407.06 369.64 408.34 354.77 411.89C353.26 412.37 351.79 411.09 352.06 409.51Q355.79 392.26 361.26 375.61 368.77 359.55 378.41 344.08 378.41 344.08 378.41 344.08" stroke-dasharray="9 6" transform="rotate(92.92, 400, 400)" opacity="0.33"></path><path d="M377.18 354.38C377.81 353.37 379.23 353.36 379.58 354.37Q383.62 364.54 388.63 374.97 394.65 385.66 401.65 396.62C402.33 397.62 401.97 398.55 400.97 398.34Q391.14 396.84 381.3 396.37 371.46 396.95 361.62 398.56C360.63 398.78 359.72 397.86 359.95 396.86Q362.93 385.84 366.75 375.09 374.33 359.5 377.18 354.38" stroke-dasharray="8 8" transform="rotate(96.96, 400, 400)" opacity="0.62"></path></g></svg>