<svg xmlns="http://www.w3.org/2000/svg" version="1.1" xmlns:xlink="http://www.w3.org/1999/xlink" xmlns:svgjs="http://svgjs.dev/svgjs" width="1920" height="1080" preserveAspectRatio="none" viewBox="0 0 1920 1080"><g mask="url(&quot;#SvgjsMask1024&quot;)" fill="none"><path d="M-11.56 309.31 a31.06 31.06 0 1 0 62.12 0 a31.06 31.06 0 1 0 -62.12 0z" fill="rgba(111, 244, 255, 1)"></path><path d="M1283.49 301.01 a67.79 67.79 0 1 0 135.58 0 a67.79 67.79 0 1 0 -135.58 0z" stroke="rgba(120, 130, 245, 1)"></path><path d="M165.49 210.93 a104.19 104.19 0 1 0 208.38 0 a104.19 104.19 0 1 0 -208.38 0z" fill="rgba(120, 130, 245, 1)"></path><path d="M1815.49 261.39a21.72 21.72 0 1 0-36.6 23.4z" stroke="rgba(67, 237, 198, 1)"></path><path d="M383.34 419.72L462.46 419.72L462.46 454.29L383.34 454.29z" stroke="rgba(67, 237, 198, 1)"></path><path d="M1441.4 558.37a62.29 62.29 0 1 0 116 45.45z" fill="rgba(120, 130, 245, 1)"></path><path d="M254.17 584.58L340.88 584.58L340.88 609.46L254.17 609.46z" stroke="rgba(111, 244, 255, 1)"></path><path d="M581.23-31.56a69.56 69.56 0 1 0 93.75 102.78z" fill="rgba(120, 130, 245, 1)"></path><path d="M909.48 822.01 a71.26 71.26 0 1 0 142.52 0 a71.26 71.26 0 1 0 -142.52 0z" fill="rgba(120, 130, 245, 1)"></path><path d="M566.75 923.57L620.73 923.57L620.73 977.55L566.75 977.55z" fill="rgba(120, 130, 245, 1)"></path><path d="M1078.52 660.19a96.58 96.58 0 1 0-92.9 169.35z" stroke="rgba(67, 237, 198, 1)"></path><path d="M785.41 780.64L832.98 780.64L832.98 839.91L785.41 839.91z" stroke="rgba(67, 237, 198, 1)"></path><path d="M235.91 395.65 a103.67 103.67 0 1 0 207.34 0 a103.67 103.67 0 1 0 -207.34 0z" stroke="rgba(67, 237, 198, 1)"></path><path d="M1098 849.88a25.18 25.18 0 1 0-23.04-44.78z" fill="rgba(67, 237, 198, 1)"></path><path d="M701.38 771.59a40.27 40.27 0 1 0-10.54-79.84z" fill="rgba(111, 244, 255, 1)"></path><path d="M1031.84 142.96 a91.61 91.61 0 1 0 183.22 0 a91.61 91.61 0 1 0 -183.22 0z" fill="rgba(67, 237, 198, 1)"></path><path d="M793.29 577.81 a106.64 106.64 0 1 0 213.28 0 a106.64 106.64 0 1 0 -213.28 0z" stroke="rgba(120, 130, 245, 1)"></path><path d="M745.62 403.29a3.97 3.97 0 1 0 5.83-5.39z" fill="rgba(120, 130, 245, 1)"></path><path d="M686.3 949.39L777.39 949.39L777.39 1040.48L686.3 1040.48z" stroke="rgba(120, 130, 245, 1)"></path><path d="M144.52 946.77a23.63 23.63 0 1 0-37.42 28.86z" fill="rgba(67, 237, 198, 1)"></path><path d="M1188.09 437.77L1264.28 437.77L1264.28 513.96L1188.09 513.96z" stroke="rgba(111, 244, 255, 1)"></path><path d="M1759.88 867.22 a35.97 35.97 0 1 0 71.94 0 a35.97 35.97 0 1 0 -71.94 0z" stroke="rgba(120, 130, 245, 1)"></path><path d="M1.15 235.11L53.05 235.11L53.05 287.01L1.15 287.01z" stroke="rgba(111, 244, 255, 1)"></path></g><defs><mask id="SvgjsMask1024"><rect width="1920" height="1080" fill="#ffffff"></rect></mask></defs></svg>