<svg xmlns="http://www.w3.org/2000/svg" version="1.1" xmlns:xlink="http://www.w3.org/1999/xlink" xmlns:svgjs="http://svgjs.dev/svgjs" width="1920" height="1080" preserveAspectRatio="none" viewBox="0 0 1920 1080"><g mask="url(&quot;#SvgjsMask1048&quot;)" fill="none"><path d="M -553.2425417514582,652 C -425.24,627.8 -169.24,524.8 86.75745824854175,531 C 342.76,537.2 470.76,715.4 726.7574582485418,683 C 982.76,650.6 1110.76,378.2 1366.7574582485418,369 C 1622.76,359.8 1896.11,647 2006.7574582485418,637 C 2117.41,627 1937.35,382.6 1920,319" stroke="rgba(49, 59, 172, 1)" stroke-width="2"></path><path d="M -320.7031611359522,261 C -192.7,368.4 63.3,766.8 319.2968388640478,798 C 575.3,829.2 703.3,441.2 959.2968388640478,417 C 1215.3,392.8 1343.3,674.4 1599.296838864048,677 C 1855.3,679.6 2175.16,417.4 2239.296838864048,430 C 2303.44,442.6 1983.86,678 1920,740" stroke="rgba(148, 103, 245, 0.81)" stroke-width="2"></path><path d="M -1181.2294523357675,350 C -1053.23,400 -797.23,599 -541.2294523357675,600 C -285.23,601 -157.23,343.2 98.77054766423248,355 C 354.77,366.8 482.77,652 738.7705476642325,659 C 994.77,666 1142.52,387.6 1378.7705476642325,390 C 1615.02,392.4 1811.75,614.8 1920,671" stroke="rgba(49, 59, 172, 1)" stroke-width="2"></path><path d="M -333.0857184118147,458 C -205.09,485.2 50.91,582.2 306.9142815881853,594 C 562.91,605.8 690.91,489.8 946.9142815881853,517 C 1202.91,544.2 1330.91,763.8 1586.9142815881853,730 C 1842.91,696.2 2160.3,344.6 2226.914281588185,348 C 2293.53,351.4 1981.38,667.2 1920,747" stroke="rgba(148, 103, 245, 0.81)" stroke-width="2"></path><path d="M -30.45855819003964,467 C 97.54,514.2 353.54,707.2 609.5414418099604,703 C 865.54,698.8 993.54,451 1249.5414418099604,446 C 1505.54,441 1633.54,662.6 1889.5414418099604,678 C 2145.54,693.4 2523.45,535 2529.5414418099604,523 C 2535.63,511 2041.91,599 1920,618" stroke="rgba(148, 103, 245, 0.81)" stroke-width="2"></path><path d="M -1222.5593217117616,371 C -1094.56,438.8 -838.56,704.8 -582.5593217117618,710 C -326.56,715.2 -198.56,399.6 57.440678288238246,397 C 313.44,394.4 441.44,718.4 697.4406782882382,697 C 953.44,675.6 1092.93,270.4 1337.4406782882384,290 C 1581.95,309.6 1803.49,694 1920,795" stroke="rgba(148, 103, 245, 0.81)" stroke-width="2"></path></g><defs><mask id="SvgjsMask1048"><rect width="1920" height="1080" fill="#ffffff"></rect></mask></defs></svg>