<svg xmlns="http://www.w3.org/2000/svg" version="1.1" xmlns:xlink="http://www.w3.org/1999/xlink" xmlns:svgjs="http://svgjs.dev/svgjs" width="1920" height="1080" preserveAspectRatio="none" viewBox="0 0 1920 1080"><g mask="url(&quot;#SvgjsMask1514&quot;)" fill="none"><path d="M1644.72 235.96 a15.49 15.49 0 1 0 30.98 0 a15.49 15.49 0 1 0 -30.98 0z" stroke="rgba(120, 130, 245, 0.42)"></path><path d="M345.61 953.84a101.03 101.03 0 1 0-97.34-177.07z" fill="rgba(120, 130, 245, 0.42)"></path><path d="M723.76 433.35L790.18 433.35L790.18 499.77L723.76 499.77z" stroke="rgba(120, 130, 245, 0.42)"></path><path d="M135.73 521.59a11.43 11.43 0 1 0-22.85-0.51z" fill="rgba(67, 237, 198, 0.48)"></path><path d="M354.64 725.82L355.66 725.82L355.66 810.62L354.64 810.62z" fill="rgba(67, 237, 198, 0.48)"></path><path d="M738.9 382.11a22.29 22.29 0 1 0 44.58-0.04z" stroke="rgba(120, 130, 245, 0.42)"></path><path d="M1103.5 606.16 a9.82 9.82 0 1 0 19.64 0 a9.82 9.82 0 1 0 -19.64 0z" stroke="rgba(120, 130, 245, 0.42)"></path><path d="M1002.94 815.72L1012.2 815.72L1012.2 824.98L1002.94 824.98z" fill="rgba(67, 237, 198, 0.48)"></path><path d="M1277.02 191.52 a78.34 78.34 0 1 0 156.68 0 a78.34 78.34 0 1 0 -156.68 0z" stroke="rgba(111, 244, 255, 0.48)"></path><path d="M267.34 0.04L353.19 0.04L353.19 85.89L267.34 85.89z" fill="rgba(111, 244, 255, 0.48)"></path><path d="M1273.79 974.8L1316.75 974.8L1316.75 1037.74L1273.79 1037.74z" fill="rgba(120, 130, 245, 0.42)"></path><path d="M1213.13 344.55 a49.19 49.19 0 1 0 98.38 0 a49.19 49.19 0 1 0 -98.38 0z" stroke="rgba(67, 237, 198, 0.48)"></path><path d="M407.82 343.28L512.53 343.28L512.53 447.99L407.82 447.99z" fill="rgba(120, 130, 245, 0.47)"></path><path d="M89.84 1058.79a43.5 43.5 0 1 0 68.38-53.79z" stroke="rgba(120, 130, 245, 0.47)"></path><path d="M1491.43 240.39L1503.58 240.39L1503.58 276.74L1491.43 276.74z" fill="rgba(111, 244, 255, 0.48)"></path><path d="M1722.82 214.7a78.66 78.66 0 1 0-66.31 142.67z" fill="rgba(111, 244, 255, 0.48)"></path><path d="M514.81 982.26L605.24 982.26L605.24 1019.01L514.81 1019.01z" fill="rgba(111, 244, 255, 0.48)"></path><path d="M708.49 284.01L773.75 284.01L773.75 361.61L708.49 361.61z" fill="rgba(120, 130, 245, 0.42)"></path><path d="M547.84 406.48L643.07 406.48L643.07 501.71L547.84 501.71z" stroke="rgba(120, 130, 245, 0.42)"></path><path d="M1118.76 460.33L1125.09 460.33L1125.09 466.66L1118.76 466.66z" stroke="rgba(67, 237, 198, 0.48)"></path><path d="M433.88 74.8a12.43 12.43 0 1 0 21.55 12.4z" fill="rgba(120, 130, 245, 0.47)"></path><path d="M274.58 280.61a3.68 3.68 0 1 0-7.12-1.86z" fill="rgba(67, 237, 198, 0.48)"></path><path d="M615.05 970.12 a1.95 1.95 0 1 0 3.9 0 a1.95 1.95 0 1 0 -3.9 0z" fill="rgba(111, 244, 255, 0.48)"></path></g><defs><mask id="SvgjsMask1514"><rect width="1920" height="1080" fill="#ffffff"></rect></mask></defs></svg>