<svg xmlns="http://www.w3.org/2000/svg" version="1.1" xmlns:xlink="http://www.w3.org/1999/xlink" xmlns:svgjs="http://svgjs.dev/svgjs" viewBox="0 0 800 800"><defs><linearGradient x1="50%" y1="0%" x2="50%" y2="100%" id="ffflurry-grad" gradientTransform="rotate(270)"><stop stop-color="hsl(0, 0%, 100%)" stop-opacity="1" offset="0%"></stop><stop stop-color="hsl(247, 100%, 67%)" stop-opacity="1" offset="45%"></stop><stop stop-color="hsl(287, 52%, 78%)" stop-opacity="1" offset="100%"></stop></linearGradient></defs><rect width="100%" height="100%" fill="hsl(0, 0%, 100%)"></rect><g fill="url(#ffflurry-grad)"><rect width="388" height="1" x="521" y="744.5" rx="0.5" transform="rotate(45, 715, 745)" opacity="0.09"></rect><rect width="193" height="1" x="674.5" y="415.5" rx="0.5" transform="rotate(45, 771, 416)" opacity="0.24"></rect><rect width="479" height="1" x="460.5" y="431.5" rx="0.5" transform="rotate(45, 700, 432)" opacity="0.32"></rect><rect width="576" height="1" x="-237" y="740.5" rx="0.5" transform="rotate(45, 51, 741)" opacity="0.26"></rect><rect width="384" height="1" x="390" y="305.5" rx="0.5" transform="rotate(45, 582, 306)" opacity="0.27"></rect><rect width="722" height="1" x="145" y="152.5" rx="0.5" transform="rotate(45, 506, 153)" opacity="0.20"></rect><rect width="57" height="1" x="234.5" y="631.5" rx="0.5" transform="rotate(45, 263, 632)" opacity="0.99"></rect><rect width="290" height="1" x="243" y="264.5" rx="0.5" transform="rotate(45, 388, 265)" opacity="0.36"></rect><rect width="268" height="1" x="388" y="499.5" rx="0.5" transform="rotate(45, 522, 500)" opacity="0.11"></rect><rect width="711" height="1" x="123.5" y="356.5" rx="0.5" transform="rotate(45, 479, 357)" opacity="0.42"></rect><rect width="872" height="1" x="-359" y="239.5" rx="0.5" transform="rotate(45, 77, 240)" opacity="0.76"></rect><rect width="482" height="1" x="364" y="407.5" rx="0.5" transform="rotate(45, 605, 408)" opacity="0.52"></rect><rect width="229" height="1" x="477.5" y="598.5" rx="0.5" transform="rotate(45, 592, 599)" opacity="0.96"></rect><rect width="265" height="1" x="622.5" y="541.5" rx="0.5" transform="rotate(45, 755, 542)" opacity="0.52"></rect><rect width="215" height="1" x="611.5" y="637.5" rx="0.5" transform="rotate(45, 719, 638)" opacity="0.68"></rect><rect width="134" height="1" x="216" y="149.5" rx="0.5" transform="rotate(45, 283, 150)" opacity="0.72"></rect><rect width="290" height="1" x="193" y="585.5" rx="0.5" transform="rotate(45, 338, 586)" opacity="0.84"></rect><rect width="323" height="1" x="46.5" y="299.5" rx="0.5" transform="rotate(45, 208, 300)" opacity="0.25"></rect><rect width="793" height="1" x="62.5" y="640.5" rx="0.5" transform="rotate(45, 459, 641)" opacity="0.29"></rect><rect width="392" height="1" x="26" y="485.5" rx="0.5" transform="rotate(45, 222, 486)" opacity="0.69"></rect><rect width="445" height="1" x="527.5" y="233.5" rx="0.5" transform="rotate(45, 750, 234)" opacity="0.22"></rect><rect width="686" height="1" x="36" y="443.5" rx="0.5" transform="rotate(45, 379, 444)" opacity="0.11"></rect><rect width="167" height="1" x="428.5" y="763.5" rx="0.5" transform="rotate(45, 512, 764)" opacity="0.20"></rect><rect width="698" height="1" x="285" y="182.5" rx="0.5" transform="rotate(45, 634, 183)" opacity="0.69"></rect><rect width="939" height="1" x="-350.5" y="71.5" rx="0.5" transform="rotate(45, 119, 72)" opacity="0.12"></rect><rect width="593" height="1" x="-218.5" y="437.5" rx="0.5" transform="rotate(45, 78, 438)" opacity="0.15"></rect><rect width="799" height="1" x="180.5" y="712.5" rx="0.5" transform="rotate(45, 580, 713)" opacity="0.56"></rect><rect width="545" height="1" x="26.5" y="371.5" rx="0.5" transform="rotate(45, 299, 372)" opacity="0.57"></rect><rect width="543" height="1" x="138.5" y="738.5" rx="0.5" transform="rotate(45, 410, 739)" opacity="0.70"></rect><rect width="149" height="1" x="635.5" y="332.5" rx="0.5" transform="rotate(45, 710, 333)" opacity="0.45"></rect><rect width="518" height="1" x="-196" y="604.5" rx="0.5" transform="rotate(45, 63, 605)" opacity="0.34"></rect><rect width="131" height="1" x="98.5" y="747.5" rx="0.5" transform="rotate(45, 164, 748)" opacity="0.56"></rect><rect width="188" height="1" x="600" y="64.5" rx="0.5" transform="rotate(45, 694, 65)" opacity="0.44"></rect><rect width="792" height="1" x="8" y="53.5" rx="0.5" transform="rotate(45, 404, 54)" opacity="0.63"></rect><rect width="368" height="1" x="-13" y="631.5" rx="0.5" transform="rotate(45, 171, 632)" opacity="0.47"></rect><rect width="91" height="1" x="250.5" y="741.5" rx="0.5" transform="rotate(45, 296, 742)" opacity="0.39"></rect><rect width="519" height="1" x="166.5" y="532.5" rx="0.5" transform="rotate(45, 426, 533)" opacity="0.12"></rect><rect width="465" height="1" x="415.5" y="506.5" rx="0.5" transform="rotate(45, 648, 507)" opacity="0.16"></rect></g></svg>