<svg xmlns="http://www.w3.org/2000/svg" version="1.1" xmlns:xlink="http://www.w3.org/1999/xlink" xmlns:svgjs="http://svgjs.dev/svgjs" width="1920" height="1080" preserveAspectRatio="none" viewBox="0 0 1920 1080"><g mask="url(&quot;#SvgjsMask1002&quot;)" fill="none"><path d="M -570.0360481234599,267 C -442.04,347.4 -186.04,622 69.9639518765401,669 C 325.96,716 453.96,521.8 709.9639518765401,502 C 965.96,482.2 1093.96,580.8 1349.96395187654,570 C 1605.96,559.2 1875.96,410 1989.96395187654,448 C 2103.97,486 1933.99,697.6 1920,760" stroke="rgba(148, 103, 245, 0.81)" stroke-width="2"></path><path d="M -675.5226513188331,281 C -547.52,378.2 -291.52,720.4 -35.5226513188331,767 C 220.48,813.6 348.48,514 604.4773486811669,514 C 860.48,514 988.48,770.6 1244.4773486811669,767 C 1500.48,763.4 1749.37,510.8 1884.4773486811669,496 C 2019.58,481.2 1912.9,653.6 1920,693" stroke="rgba(148, 103, 245, 0.81)" stroke-width="2"></path><path d="M -68.34652268595323,795 C 59.65,706.4 315.65,393.4 571.6534773140468,352 C 827.65,310.6 955.65,568.6 1211.6534773140468,588 C 1467.65,607.4 1595.65,450.4 1851.6534773140468,449 C 2107.65,447.6 2477.98,569.6 2491.6534773140465,581 C 2505.32,592.4 2034.33,521 1920,506" stroke="rgba(49, 59, 172, 1)" stroke-width="2"></path><path d="M -650.3301585555907,486 C -522.33,522.8 -266.33,689.2 -10.330158555590785,670 C 245.67,650.8 373.67,415.8 629.6698414444093,390 C 885.67,364.2 1013.67,532.6 1269.6698414444093,541 C 1525.67,549.4 1779.6,426.4 1909.6698414444093,432 C 2039.74,437.6 1917.93,541.6 1920,569" stroke="rgba(148, 103, 245, 0.81)" stroke-width="2"></path><path d="M -553.1210050904934,515 C -425.12,536.6 -169.12,657.4 86.87899490950656,623 C 342.88,588.6 470.88,324.8 726.8789949095066,343 C 982.88,361.2 1110.88,717.2 1366.8789949095067,714 C 1622.88,710.8 1896.25,351.4 2006.8789949095067,327 C 2117.5,302.6 1937.38,539 1920,592" stroke="rgba(49, 59, 172, 1)" stroke-width="2"></path><path d="M -1077.4180802383512,342 C -949.42,405.4 -693.42,626 -437.4180802383512,659 C -181.42,692 -53.42,505 202.5819197616488,507 C 458.58,509 586.58,703.8 842.5819197616488,669 C 1098.58,634.2 1267.1,347.8 1482.5819197616488,333 C 1698.07,318.2 1832.52,542.6 1920,595" stroke="rgba(49, 59, 172, 1)" stroke-width="2"></path></g><defs><mask id="SvgjsMask1002"><rect width="1920" height="1080" fill="#ffffff"></rect></mask></defs></svg>