<svg xmlns="http://www.w3.org/2000/svg" version="1.1" xmlns:xlink="http://www.w3.org/1999/xlink" xmlns:svgjs="http://svgjs.dev/svgjs" width="1440" height="560" preserveAspectRatio="none" viewBox="0 0 1440 560"><g mask="url(&quot;#SvgjsMask1005&quot;)" fill="none"><path d="M 0,455 C 288,399.2 1152,231.8 1440,176L1440 560L0 560z" fill="rgba(182, 148, 255, 0.07)"></path><path d="M 0,50 C 288,145 1152,430 1440,525L1440 560L0 560z" fill="rgba(182, 148, 255, 0.07)"></path><path d="M 0,541 C 288,444.2 1152,153.8 1440,57L1440 560L0 560z" fill="rgba(182, 148, 255, 0.07)"></path><path d="M 0,219 C 288,251.4 1152,348.6 1440,381L1440 560L0 560z" fill="rgba(155, 148, 255, 0.07)"></path><path d="M 0,121 C 288,200.2 1152,437.8 1440,517L1440 560L0 560z" fill="rgba(182, 148, 255, 0.07)"></path><path d="M 0,412 C 288,348.8 1152,159.2 1440,96L1440 560L0 560z" fill="rgba(51, 112, 231, 0.003)"></path></g><defs><mask id="SvgjsMask1005"><rect width="1440" height="560" fill="#ffffff"></rect></mask></defs></svg>