<svg xmlns="http://www.w3.org/2000/svg" version="1.1" xmlns:xlink="http://www.w3.org/1999/xlink" xmlns:svgjs="http://svgjs.dev/svgjs" viewBox="0 0 1422 800"><defs><linearGradient x1="50%" y1="0%" x2="50%" y2="100%" id="ssscribble-grad"><stop stop-color="hsl(231, 75%, 49%)" stop-opacity="1" offset="0%"></stop><stop stop-color="hsl(286, 90%, 56%)" stop-opacity="1" offset="100%"></stop></linearGradient></defs><g fill="none" stroke-width="1.5" stroke="url(#ssscribble-grad)" stroke-linecap="round"><path d="M1274.85 361.11C1226.19 393.97 1158.08 419.83 1099.35 439.6 1072 460.36 1080.17 477.31 1113.49 493.62 1159.15 515.67 1192.69 543.23 1201.38 580.53 1184.06 628.59 1140.9 687.48 1082.7 752.98 1017.54 815.24 955.7 866.11 902.87 893.49 859.37 894.01 825.92 866.55 799.09 821.14 778.34 781.68 758.35 762.53 735.82 777.95 714.53 828.93 687.97 896.71 655.11 953.25 622.25 974.98 584.64 949.78 543.96 890.57 504.52 821.6 464.73 766.23 428.53 739.67 384.1 803.12 426.77 777.08 411.97 695.97 369.06 635.83 306.05 579.13 236.31 528.71 178.9 481.83 152.02 440.84 166.69 404.16 212.74 369.08 274.19 335.51 322.85 302.65 331.91 269.79 301.87 239.19 249.75 212.3 195.59 187.01 167.49 168.22 176.21 158.15 217.8 151.62 281.96 154.2 350.49 163.69 409.72 169.43 449.92 171.71 470.34 162.27 471.77 133.26 464.07 84.99 455.75 20.76 445.64 -76.92 479.1 -116.7 517.82 -42.08 547.2 4.44 579.13 22.99 611.99 1.28 644.85 -55.25 677.09 -116.38 709.68 -154.68 743.96 -157.43 781.68 -119.58 824.97 -56.04 872.73 13.45 927.68 70.38 988.02 104.09 1046.99 110.92 1101.87 99.01 1143.5 79.83 1165.54 51.53 1088.25 74.88 1053.41 123.06 1068.77 163.7 1115.57 206.53 1182.41 247.75 1247.21 289.95 1283.91 328.25 1274.85 361.11Q1274.85 361.11 1274.85 361.11" opacity="0.49"></path><path d="M1240.85 311.23C1196.59 341.74 1133.67 368.89 1075.51 393.7 1041.24 419.94 1037.18 446.64 1058.43 476.48 1097.38 511.49 1134.24 553.41 1155.98 603.43 1159.26 658.18 1138.38 717.1 1098.79 773.81 1046.33 820.03 988.57 849.57 932.58 855.23 879.37 840.02 833.37 805.75 794.37 763.94 760.16 734.93 729.95 728.12 701.35 751.89 674.24 803.94 645.9 867.42 615.39 919.25 584.88 940.91 553.63 921.65 523.2 870.67 494.25 806.57 468.95 748.29 450.28 710.92 444.27 747.61 465.66 777.62 422.96 724.27 369.45 676.41 305.22 625.6 243.9 576.45 200.28 527.05 186.98 482.1 209.47 442.3 255.85 403.2 312.59 368.32 356.85 337.81 366.78 307.3 342.66 282.59 297.08 264.14 227.48 241.12 253.5 228.9 340.2 230.01 403.13 222.47 456.18 206.4 494.34 176.72 516.09 131.77 525.15 73.93 527.46 10.03 521.72 -69.22 534.19 -68.14 559.05 4.63 578.94 43.83 604.49 56.92 635 35.28 665.51 -16.55 699.55 -73.84 737.21 -114.12 775.81 -126.12 819.47 -101.95 868.1 -50.58 917.54 13.59 970.09 75.23 1021.71 122.21 1098.31 138.05 1031.98 110.36 1019.33 132.39 1047.04 155.43 1099.1 184.24 1163.12 215.54 1220.48 248.29 1250.78 280.71 1240.85 311.23Q1240.85 311.23 1240.85 311.23" opacity="0.22"></path><path d="M1206.85 304.05C1166.88 332.22 1109.4 361.34 1053.07 391.9 1013.93 423.63 999.19 458.83 1007.89 498.62 1036.59 541.19 1070.61 589.15 1098.44 640.97 1116.4 691.61 1115.39 739.91 1096.39 779.57 1063.24 805.93 1019.3 814.7 970.86 803.24 919.48 778.72 870.47 743.99 826.1 710.01 783.75 692.71 746.11 697.23 712.55 727.48 680.02 779.27 649.83 838.06 621.66 885.25 593.5 906.6 568.69 892.74 548.1 850 528.54 792.25 514.93 734.16 508.48 689.44 513.38 691.96 485.28 750.12 421.8 726.71 364.64 697.76 305.36 661.51 256.02 622.37 226.67 580.3 225.38 539.47 253.65 502.08 299.11 464.43 350.88 431.05 390.85 402.89 401.42 374.72 382.79 353.1 344.01 337.62 276.35 316.69 264.64 290.01 330.58 270.47 388.62 246.87 445.68 213.64 494.79 169.24 533.34 116.4 560.15 58.32 577.86 2.93 589.77 -52.62 609.25 -17.32 629.36 50.58 644.73 82.45 666.4 90.61 694.56 69.28 722.73 22.09 756.06 -30.98 793.81 -71.92 831.55 -91.3 873.35 -79.79 917.38 -41.85 959.21 12.76 999.59 72.76 1034.09 126.6 1057.19 187.8 983.24 175.54 992.72 181 1029.76 190.01 1084.01 206.05 1143.43 227.45 1193.09 250.01 1217.42 275.88 1206.85 304.05Q1206.85 304.05 1206.85 304.05" opacity="0.42"></path><path d="M1172.85 343.03C1137.06 368.85 1085.21 398.55 1031.8 431.88 989.87 465.67 966.52 503.73 963.32 545.5 979.81 587.26 1006.13 631.16 1033.29 674.2 1064.87 727.76 1044.71 766.72 998.49 741.19 958.83 714.14 916.82 684.39 875.8 661.06 834.03 655.56 795.46 669.79 761.06 704.54 726.93 754.85 696.73 808.64 670.91 851.25 645.09 872.05 624.88 863.02 610.31 828.31 596.01 778.02 587.62 722.85 584.64 674.49 580.67 633.21 568.16 649.07 541.27 676.48 508.61 692.75 465.01 699.54 413.03 696.09 358.99 685.87 309.52 666.91 274.1 642.16 258.37 613.67 267.03 583 298.99 552.66 342.44 521.49 389.06 492.39 424.85 466.57 435.82 440.75 422.21 419.43 390.28 401.91 346.85 383.56 308.01 367.26 284.01 351 277.58 331.01 293.48 307.45 327.47 277.88 373.88 241.53 426.2 197.67 477.49 147.57 524.97 95.98 564.72 46.04 596.42 4.92 620.76 -21.8 639.66 -29.19 655.93 -14.72 668.69 14.7 682.53 55.16 699.37 95.5 715.53 120.25 736.19 124.05 762.01 103.27 787.83 60.65 817.58 12.1 850.12 -28.25 881.97 -53.03 915.1 -52.58 947.08 -28.15 975.56 14.09 999.18 67 1014.64 120.93 1022.73 169.6 1020.04 207.71 1006.4 234.05 978.1 251.22 944.25 252.05 973.23 254.34 1016.15 257.32 1069.69 266.23 1123.08 281.13 1164.98 296.5 1183.82 317.21 1172.85 343.03Q1172.85 343.03 1172.85 343.03" opacity="0.31"></path><path d="M1138.95 409.3C1107.3 432.77 1061.21 460.55 1011.67 491.85 968.91 522.94 939.26 556.96 925.7 592.28 929.57 625.69 945.07 657.78 966.02 685.49 1010.31 710.41 962.72 640.21 917.74 618.31 884.57 623.63 851.87 645.5 821.48 682.75 790.71 730.48 763.14 779.02 739.66 817.14 716.19 837.16 697.93 832.33 684.44 805.25 670.56 763.08 660.56 713.12 653.06 664.73 643.17 624.91 632.9 597.71 619.67 583.82 600.08 583.69 573.9 591.93 539.71 603.66 498.49 619.11 451.32 630.75 402.15 636.2 338.49 636.16 303.64 598.31 345.49 567.38 385.97 544.98 427.3 521.58 458.95 498.1 469.99 474.63 460.74 452.21 435.43 430.33 398.1 407.58 361.2 383.73 333.22 357.44 316.64 328.28 317.9 294.65 335.79 256.01 366.77 214.39 407.65 169.04 452.8 122.83 499.77 80.34 544.06 44.26 583.48 19.96 618.87 9.4 649.01 15.55 674.97 38.17 697.84 69.36 718.98 105.95 739.88 139.07 759.92 157.09 781.39 157.16 804.87 137.14 828.34 99.02 852.7 55.24 876.93 16.56 900.29 -11.61 921.85 -20.13 939.65 -8.24 954.37 20.41 962.89 62.34 963.68 110.35 960.43 159.42 949.83 204.08 933.63 241.21 912.72 280.35 916.1 317.05 959.78 327.6 1004.97 332.95 1055.23 341.64 1101.62 354.81 1135.99 367.78 1149.99 385.82 1138.95 409.3Q1138.95 409.3 1138.95 409.3" opacity="0.12"></path><path d="M1104.84 471.26C1077.02 492.39 1036.62 516 991.76 541.21 950.13 565.84 916.93 590.89 895.56 614.61 946.71 618.13 896.75 610.82 862.16 662.21 838.33 706.4 815.4 749.54 794.28 783.26 773.16 802.27 754.83 800.99 738.83 780.95 722.17 747.14 706.55 704.1 690.64 658.86 672.17 616.95 651.09 582.56 625.94 557.87 596.28 544.1 561.31 539.12 521.47 540.07 479.42 547.32 436.21 555.22 395.87 561.05 351.15 568.21 348.13 555.61 392.2 536.54 428.9 521.85 465.02 503.74 492.84 482.61 503.92 461.49 498.69 438.35 479.8 413.21 449.27 387.52 416.36 358.91 387.65 327.15 364.9 294.19 354.91 257.79 358.41 218.88 373.18 180.49 398.98 142.26 432.07 107.32 470.32 78.69 510.34 58.62 549.25 50.4 587.67 53.09 622.86 68.53 654.31 94.96 684.15 124.71 711 155.72 735.38 181.39 759.14 193.27 781.53 190.27 802.65 171.26 823.78 137.53 842.64 98.68 858.72 62.64 879.97 25.42 897.49 48.94 891.43 101.17 885.08 144.05 875.39 187.72 864.82 228.51 859.42 265.6 858.66 296.98 865.89 322.82 884.38 343.76 913.31 361.03 951.55 376.39 995.73 389.28 1040.67 402.66 1079.35 417.87 1106.4 432.5 1115.92 450.13 1104.85 471.25Q1104.84 471.26 1104.84 471.26" opacity="0.18"></path><path d="M1070.83 498.83C1046.78 517.6 1012.07 536.09 972.45 553.65 933.52 570.66 899.2 585.68 872.75 597.56 893.57 566.76 883.72 590.74 861.67 642.32 845.55 682.19 827.83 719.84 809.06 749.28 790.28 767.03 771.33 768.62 752.03 754.87 732.19 729.23 710.99 694.15 687.79 654.6 662.89 614.6 634.82 577.72 603.38 546.64 570.1 522.66 533.95 505.85 496.46 495.11 460.41 490.73 426.78 489.47 398.85 489.16 373.83 491.72 396 484.31 439.51 470.98 471.87 460.59 502.78 446.05 526.83 427.27 537.6 408.49 535.64 386.37 522.55 361.34 498.96 336.22 471.53 308.13 445.01 277.74 420.25 247.69 403.5 216.23 396.41 185 397.34 156.37 408.18 130.67 426.94 110.44 451.69 96.57 480.93 91.12 512.07 95.54 545.15 107.08 577.61 127.11 608.04 153.35 638.42 179.13 666.23 203.53 691.03 221.92 715.62 228.42 737.48 223.03 756.25 205.28 775.04 175.84 789.85 141.99 800.67 109.37 817.8 67.95 812.9 149.18 811.61 204.66 817.46 242.15 828.88 277.21 847.5 308.74 874.14 337.75 907.72 363.26 946.25 385.8 986.53 406.47 1024.65 425.6 1055.49 444.01 1075.83 461.86 1081.6 480.04 1070.84 498.82Q1070.83 498.83 1070.83 498.83" opacity="0.61"></path><path d="M1036.84 478.81C988.18 511.68 918.29 533.94 856.67 542.8 814.82 543.55 835.5 508 836.22 534.19 829.93 589.05 809.5 658.72 776.64 715.27 743.78 736.98 701.6 709.43 650.94 650.04 598.23 580.14 537.01 518.01 476.89 474.02 429.78 448.69 405.69 434.27 418.07 420.32 455.61 410.9 512.18 391.65 560.84 358.79 569.9 325.93 544.41 282.57 503.54 235.04 448.03 173.61 492.33 151.99 560.59 211.45 610.84 246.75 655.25 260.98 688.11 239.27 720.97 182.72 739.17 126.37 745.88 95.59 756.19 93.89 764.21 127.95 780.93 181.55 817.11 245.07 873.12 306.28 942.13 357.52 1007.09 405.61 1045.9 445.95 1036.84 478.81Q1036.84 478.81 1036.84 478.81" opacity="0.71"></path><path d="M1002.84 420.92C962.86 449.08 903.91 464.29 846.14 467.44 801.74 471.15 774.79 466.08 762.01 459.27 762.84 464.88 764.58 483.17 759.53 519.85 755.91 573.76 740.84 634.07 712.67 681.26 684.51 702.61 645.92 686.53 600.72 643.19 556.95 585.88 511.26 526.48 473.51 476.1 449.37 435.68 446.45 405.47 470.2 380.88 507.33 360.84 554.86 338.3 594.84 310.13 605.42 281.97 590.52 250.84 561.2 222.07 503.59 203.4 586.19 292.28 630.95 273.26 659.11 226.07 679.6 177.18 695.68 143.91 716.12 127.87 740.41 139.46 774.42 170.77 820.22 214.49 877.5 263.52 937.12 308.63 987.09 354.28 1013.42 392.74 1002.85 420.91Q1002.84 420.92 1002.84 420.92" opacity="0.27"></path><path d="M968.84 352.93C937.1 376.4 889.72 390.38 839.6 396.98 794.44 405.8 758.7 412.11 733.43 421.27 718.12 440.51 707.18 470.07 695.52 510.65 686.47 559.37 671.34 609.14 647.87 647.26 624.4 667.28 594.8 660.39 563.17 632.15 534.16 590.54 508.47 541.74 493.02 494.92 487.52 450.67 498.37 412.91 526.32 381.95 559.24 353.68 597.1 328.19 628.84 304.72 571.98 269.28 578.28 328.6 612.31 307.26 635.78 269.14 659.39 228.88 684.42 197.37 712.42 173.99 746.56 169.32 787.76 180.85 833.37 202.46 883.31 232.78 929.22 264.63 964.25 298.71 979.99 329.45 968.85 352.92Q968.84 352.93 968.84 352.93" opacity="0.51"></path><path d="M934.85 307.58C910.8 326.36 875.05 341.73 835.19 354.96 795.45 370.2 759.12 386.95 728.89 407.57 703.77 433.98 683.08 466.98 665.06 504.91 649.08 545.17 632.21 583.82 613.44 613.25 594.66 631.02 575.74 630.79 559.19 615.38 544.66 589.72 536.04 555.83 536.55 519.94 542.17 482.49 558.59 447.48 584.56 417.63 610.66 388.5 638.8 363.92 662.85 345.14 630.61 331.1 616.29 362.71 641.13 341.25 659.91 311.82 683.57 280.78 711.28 254.29 740.07 230.12 774.23 217.03 811.76 215.23 848.99 219.23 885.99 231.78 916.67 249.08 938.2 268.39 945.61 288.8 934.85 307.58Q934.85 307.58 934.85 307.58" opacity="0.14"></path><path d="M900.84 306.7C860.86 334.87 798.95 370.8 743.55 415.64 693.94 468.73 654.11 532.07 625.94 579.26 597.77 600.61 586.6 580.03 599.3 539.13 617.78 488.44 656.86 440.12 696.84 411.96 703.66 382.44 674.4 397.74 703.59 375.26 731.76 328.07 780.72 287.56 834.65 271.39 881.06 263.47 911.42 278.53 900.84 306.7Q900.84 306.7 900.84 306.7" opacity="0.47"></path><path d="M866.85 350.69C809.12 388.25 716.93 479.17 679.38 545.25 641.82 566.42 673.12 510.56 730.85 473 737.48 435.45 732.02 430.42 769.58 409.25 807.13 343.17 873.48 313.14 866.85 350.69Q866.85 350.69 866.85 350.69" opacity="0.52"></path></g></svg>