<svg xmlns="http://www.w3.org/2000/svg" version="1.1" xmlns:xlink="http://www.w3.org/1999/xlink" xmlns:svgjs="http://svgjs.com/svgjs" width="1440" height="560" preserveAspectRatio="none" viewBox="0 0 1440 560"><g mask="url(&quot;#SvgjsMask1000&quot;)" fill="none"><path d="M260.28 620.89C429.99 617.48 561.42 398.2 899.52 392.04 1237.62 385.88 1370.35 182.01 1538.76 179.24" stroke="rgba(51,121,194,0.58)" stroke-width="2"></path><path d="M589.72 615.45C729.69 562.7 669.59 143.22 953.15 140.14 1236.71 137.06 1493.83 301.56 1680.02 302.54" stroke="rgba(51,121,194,0.58)" stroke-width="2"></path><path d="M772.97 578.38C865.63 556.32 807.9 325.34 1041.2 307.79 1274.5 290.24 1433.93 104.15 1577.66 100.59" stroke="rgba(51,121,194,0.58)" stroke-width="2"></path><path d="M271.89 656.92C406.07 625.34 450.84 272.71 661.28 266.53 871.71 260.35 855.97 336.53 1050.66 336.53 1245.36 336.53 1341.14 266.81 1440.05 266.53" stroke="rgba(51,121,194,0.58)" stroke-width="2"></path><path d="M660.51 629.12C818.15 572.68 856.47 106.96 1075.28 103.24 1294.08 99.52 1369.77 340.58 1490.04 349.64" stroke="rgba(51,121,194,0.58)" stroke-width="2"></path></g><defs><mask id="SvgjsMask1000"><rect width="1440" height="560" fill="#ffffff"></rect></mask></defs></svg>